%TF.GenerationSoftware,KiCad,Pcbnew,(6.0.2)*%
%TF.CreationDate,2022-07-21T21:07:04-07:00*%
%TF.ProjectId,testCoupon,74657374-436f-4757-906f-6e2e6b696361,1*%
%TF.SameCoordinates,Original*%
%TF.FileFunction,Copper,L3,Inr*%
%TF.FilePolarity,Positive*%
%FSLAX46Y46*%
G04 Gerber Fmt 4.6, Leading zero omitted, Abs format (unit mm)*
G04 Created by KiCad (PCBNEW (6.0.2)) date 2022-07-21 21:07:04*
%MOMM*%
%LPD*%
G01*
G04 APERTURE LIST*
%TA.AperFunction,ComponentPad*%
%ADD10C,0.380000*%
%TD*%
%TA.AperFunction,ViaPad*%
%ADD11C,0.800000*%
%TD*%
G04 APERTURE END LIST*
D10*
%TO.N,GND*%
%TO.C,NT5*%
X166346592Y-110076010D03*
X169866192Y-108524010D03*
X156667692Y-110076010D03*
X154907892Y-110076010D03*
X155787792Y-110076010D03*
X161067192Y-110076010D03*
X168986292Y-108524010D03*
X149628492Y-108524010D03*
X159307392Y-108524010D03*
X150508392Y-108524010D03*
X161947092Y-108524010D03*
X154027992Y-110076010D03*
X153148092Y-110076010D03*
X170746092Y-110076010D03*
X147868692Y-108524010D03*
X142589292Y-110076010D03*
X146988792Y-108524010D03*
X168986292Y-110076010D03*
X157547592Y-110076010D03*
X150508392Y-110076010D03*
X161067192Y-108524010D03*
X155787792Y-108524010D03*
X164586792Y-110076010D03*
X151388292Y-108524010D03*
X159307392Y-110076010D03*
X161947092Y-110076010D03*
X148748592Y-110076010D03*
X160187292Y-108524010D03*
X167226492Y-110076010D03*
X170746092Y-108524010D03*
X156667692Y-108524010D03*
X152268192Y-108524010D03*
X144349092Y-110076010D03*
X148748592Y-108524010D03*
X169866192Y-110076010D03*
X145228992Y-110076010D03*
X168106392Y-110076010D03*
X141709392Y-110076010D03*
X165466692Y-110076010D03*
X146988792Y-110076010D03*
X167226492Y-108524010D03*
X152268192Y-110076010D03*
X157547592Y-108524010D03*
X143469192Y-110076010D03*
X146108892Y-110076010D03*
X141709392Y-108524010D03*
X154027992Y-108524010D03*
X144349092Y-108524010D03*
X168106392Y-108524010D03*
X158427492Y-108524010D03*
X147868692Y-110076010D03*
X158427492Y-110076010D03*
X164586792Y-108524010D03*
X160187292Y-110076010D03*
X153148092Y-108524010D03*
X165466692Y-108524010D03*
X166346592Y-108524010D03*
X163706892Y-108524010D03*
X162826992Y-110076010D03*
X154907892Y-108524010D03*
X143469192Y-108524010D03*
X163706892Y-110076010D03*
X149628492Y-110076010D03*
X145228992Y-108524010D03*
X151388292Y-110076010D03*
X146108892Y-108524010D03*
X142589292Y-108524010D03*
X162826992Y-108524010D03*
%TD*%
D11*
%TO.N,GND*%
X153752000Y-80300000D03*
X150488000Y-91900000D03*
X174968000Y-103500000D03*
X160280000Y-68700000D03*
X170072000Y-80300000D03*
X148856000Y-91900000D03*
X170072000Y-91900000D03*
X142328000Y-103500000D03*
X145592000Y-103500000D03*
X163544000Y-103500000D03*
X147224000Y-80300000D03*
X163544000Y-91900000D03*
X170072000Y-103500000D03*
X168440000Y-80300000D03*
X157016000Y-91900000D03*
X150488000Y-80300000D03*
X166808000Y-80300000D03*
X155384000Y-80300000D03*
X152120000Y-80300000D03*
X157016000Y-103500000D03*
X163544000Y-80300000D03*
X163544000Y-68700000D03*
X160280000Y-103500000D03*
X171704000Y-68700000D03*
X148856000Y-80300000D03*
X137432000Y-91900000D03*
X147224000Y-91900000D03*
X165176000Y-91900000D03*
X153752000Y-103500000D03*
X143960000Y-80300000D03*
X137432000Y-103500000D03*
X158648000Y-68700000D03*
X165176000Y-80300000D03*
X147224000Y-68700000D03*
X173336000Y-80300000D03*
X171704000Y-91900000D03*
X168440000Y-91900000D03*
X161912000Y-103500000D03*
X148856000Y-68700000D03*
X139064000Y-80300000D03*
X143960000Y-91900000D03*
X137432000Y-80300000D03*
X157016000Y-80300000D03*
X168440000Y-68700000D03*
X153752000Y-91900000D03*
X142328000Y-91900000D03*
X153752000Y-68700000D03*
X157016000Y-68700000D03*
X171704000Y-103500000D03*
X161912000Y-91900000D03*
X166808000Y-103500000D03*
X166808000Y-91900000D03*
X155384000Y-91900000D03*
X171704000Y-80300000D03*
X140696000Y-80300000D03*
X139064000Y-68700000D03*
X165176000Y-68700000D03*
X168440000Y-103500000D03*
X143960000Y-103500000D03*
X170072000Y-68700000D03*
X174968000Y-91900000D03*
X161912000Y-80300000D03*
X160280000Y-80300000D03*
X161912000Y-68700000D03*
X140696000Y-68700000D03*
X137432000Y-68700000D03*
X174968000Y-68700000D03*
X174968000Y-80300000D03*
X173336000Y-68700000D03*
X139064000Y-91900000D03*
X150488000Y-103500000D03*
X145592000Y-91900000D03*
X142328000Y-80300000D03*
X152120000Y-68700000D03*
X152120000Y-91900000D03*
X155384000Y-103500000D03*
X150488000Y-68700000D03*
X140696000Y-91900000D03*
X166808000Y-68700000D03*
X145592000Y-80300000D03*
X173336000Y-91900000D03*
X145592000Y-68700000D03*
X139064000Y-103500000D03*
X142328000Y-68700000D03*
X152120000Y-103500000D03*
X147224000Y-103500000D03*
X143960000Y-68700000D03*
X155384000Y-68700000D03*
X165176000Y-103500000D03*
X148856000Y-103500000D03*
X158648000Y-80300000D03*
X158648000Y-91900000D03*
X158648000Y-103500000D03*
X160280000Y-91900000D03*
X173336000Y-103500000D03*
X140696000Y-103500000D03*
%TD*%
%TA.AperFunction,Conductor*%
%TO.N,GND*%
G36*
X176420933Y-57628827D02*
G01*
X176424360Y-57637100D01*
X176424360Y-114562900D01*
X176420933Y-114571173D01*
X176412660Y-114574600D01*
X135987340Y-114574600D01*
X135979067Y-114571173D01*
X135975640Y-114562900D01*
X135975640Y-57637100D01*
X135979067Y-57628827D01*
X135987340Y-57625400D01*
X176412660Y-57625400D01*
X176420933Y-57628827D01*
G37*
%TD.AperFunction*%
%TD*%
M02*
