%TF.GenerationSoftware,KiCad,Pcbnew,(6.0.2)*%
%TF.CreationDate,2022-07-21T21:07:04-07:00*%
%TF.ProjectId,testCoupon,74657374-436f-4757-906f-6e2e6b696361,1*%
%TF.SameCoordinates,Original*%
%TF.FileFunction,Soldermask,Bot*%
%TF.FilePolarity,Negative*%
%FSLAX46Y46*%
G04 Gerber Fmt 4.6, Leading zero omitted, Abs format (unit mm)*
G04 Created by KiCad (PCBNEW (6.0.2)) date 2022-07-21 21:07:04*
%MOMM*%
%LPD*%
G01*
G04 APERTURE LIST*
%ADD10C,0.150000*%
%ADD11C,0.380000*%
%ADD12R,4.000000X1.280000*%
G04 APERTURE END LIST*
D10*
X176400000Y-67600000D02*
X171600000Y-67600000D01*
X171600000Y-67600000D02*
X171600000Y-65200000D01*
X171600000Y-65200000D02*
X176400000Y-65200000D01*
X176400000Y-65200000D02*
X176400000Y-67600000D01*
G36*
X176400000Y-67600000D02*
G01*
X171600000Y-67600000D01*
X171600000Y-65200000D01*
X176400000Y-65200000D01*
X176400000Y-67600000D01*
G37*
X140800000Y-106900000D02*
X136000000Y-106900000D01*
X136000000Y-106900000D02*
X136000000Y-104500000D01*
X136000000Y-104500000D02*
X140800000Y-104500000D01*
X140800000Y-104500000D02*
X140800000Y-106900000D01*
G36*
X140800000Y-106900000D02*
G01*
X136000000Y-106900000D01*
X136000000Y-104500000D01*
X140800000Y-104500000D01*
X140800000Y-106900000D01*
G37*
X176400000Y-60500000D02*
X171600000Y-60500000D01*
X171600000Y-60500000D02*
X171600000Y-58100000D01*
X171600000Y-58100000D02*
X176400000Y-58100000D01*
X176400000Y-58100000D02*
X176400000Y-60500000D01*
G36*
X176400000Y-60500000D02*
G01*
X171600000Y-60500000D01*
X171600000Y-58100000D01*
X176400000Y-58100000D01*
X176400000Y-60500000D01*
G37*
X176400000Y-102500000D02*
X171600000Y-102500000D01*
X171600000Y-102500000D02*
X171600000Y-100100000D01*
X171600000Y-100100000D02*
X176400000Y-100100000D01*
X176400000Y-100100000D02*
X176400000Y-102500000D01*
G36*
X176400000Y-102500000D02*
G01*
X171600000Y-102500000D01*
X171600000Y-100100000D01*
X176400000Y-100100000D01*
X176400000Y-102500000D01*
G37*
X140800000Y-72100000D02*
X136000000Y-72100000D01*
X136000000Y-72100000D02*
X136000000Y-69700000D01*
X136000000Y-69700000D02*
X140800000Y-69700000D01*
X140800000Y-69700000D02*
X140800000Y-72100000D01*
G36*
X140800000Y-72100000D02*
G01*
X136000000Y-72100000D01*
X136000000Y-69700000D01*
X140800000Y-69700000D01*
X140800000Y-72100000D01*
G37*
X140800000Y-95300000D02*
X136000000Y-95300000D01*
X136000000Y-95300000D02*
X136000000Y-92900000D01*
X136000000Y-92900000D02*
X140800000Y-92900000D01*
X140800000Y-92900000D02*
X140800000Y-95300000D01*
G36*
X140800000Y-95300000D02*
G01*
X136000000Y-95300000D01*
X136000000Y-92900000D01*
X140800000Y-92900000D01*
X140800000Y-95300000D01*
G37*
X176400000Y-95300000D02*
X171600000Y-95300000D01*
X171600000Y-95300000D02*
X171600000Y-92900000D01*
X171600000Y-92900000D02*
X176400000Y-92900000D01*
X176400000Y-92900000D02*
X176400000Y-95300000D01*
G36*
X176400000Y-95300000D02*
G01*
X171600000Y-95300000D01*
X171600000Y-92900000D01*
X176400000Y-92900000D01*
X176400000Y-95300000D01*
G37*
X140800000Y-102500000D02*
X136000000Y-102500000D01*
X136000000Y-102500000D02*
X136000000Y-100100000D01*
X136000000Y-100100000D02*
X140800000Y-100100000D01*
X140800000Y-100100000D02*
X140800000Y-102500000D01*
G36*
X140800000Y-102500000D02*
G01*
X136000000Y-102500000D01*
X136000000Y-100100000D01*
X140800000Y-100100000D01*
X140800000Y-102500000D01*
G37*
X140800000Y-67700000D02*
X136000000Y-67700000D01*
X136000000Y-67700000D02*
X136000000Y-65300000D01*
X136000000Y-65300000D02*
X140800000Y-65300000D01*
X140800000Y-65300000D02*
X140800000Y-67700000D01*
G36*
X140800000Y-67700000D02*
G01*
X136000000Y-67700000D01*
X136000000Y-65300000D01*
X140800000Y-65300000D01*
X140800000Y-67700000D01*
G37*
X176400000Y-106900000D02*
X171600000Y-106900000D01*
X171600000Y-106900000D02*
X171600000Y-104500000D01*
X171600000Y-104500000D02*
X176400000Y-104500000D01*
X176400000Y-104500000D02*
X176400000Y-106900000D01*
G36*
X176400000Y-106900000D02*
G01*
X171600000Y-106900000D01*
X171600000Y-104500000D01*
X176400000Y-104500000D01*
X176400000Y-106900000D01*
G37*
X176400000Y-79300000D02*
X171600000Y-79300000D01*
X171600000Y-79300000D02*
X171600000Y-76900000D01*
X171600000Y-76900000D02*
X176400000Y-76900000D01*
X176400000Y-76900000D02*
X176400000Y-79300000D01*
G36*
X176400000Y-79300000D02*
G01*
X171600000Y-79300000D01*
X171600000Y-76900000D01*
X176400000Y-76900000D01*
X176400000Y-79300000D01*
G37*
X140800000Y-83700000D02*
X136000000Y-83700000D01*
X136000000Y-83700000D02*
X136000000Y-81300000D01*
X136000000Y-81300000D02*
X140800000Y-81300000D01*
X140800000Y-81300000D02*
X140800000Y-83700000D01*
G36*
X140800000Y-83700000D02*
G01*
X136000000Y-83700000D01*
X136000000Y-81300000D01*
X140800000Y-81300000D01*
X140800000Y-83700000D01*
G37*
X176350000Y-90900000D02*
X171650000Y-90900000D01*
X171650000Y-90900000D02*
X171650000Y-88500000D01*
X171650000Y-88500000D02*
X176350000Y-88500000D01*
X176350000Y-88500000D02*
X176350000Y-90900000D01*
G36*
X176350000Y-90900000D02*
G01*
X171650000Y-90900000D01*
X171650000Y-88500000D01*
X176350000Y-88500000D01*
X176350000Y-90900000D01*
G37*
X176400000Y-114100000D02*
X171600000Y-114100000D01*
X171600000Y-114100000D02*
X171600000Y-111700000D01*
X171600000Y-111700000D02*
X176400000Y-111700000D01*
X176400000Y-111700000D02*
X176400000Y-114100000D01*
G36*
X176400000Y-114100000D02*
G01*
X171600000Y-114100000D01*
X171600000Y-111700000D01*
X176400000Y-111700000D01*
X176400000Y-114100000D01*
G37*
X140800000Y-90900000D02*
X136000000Y-90900000D01*
X136000000Y-90900000D02*
X136000000Y-88500000D01*
X136000000Y-88500000D02*
X140800000Y-88500000D01*
X140800000Y-88500000D02*
X140800000Y-90900000D01*
G36*
X140800000Y-90900000D02*
G01*
X136000000Y-90900000D01*
X136000000Y-88500000D01*
X140800000Y-88500000D01*
X140800000Y-90900000D01*
G37*
X176400000Y-72100000D02*
X171600000Y-72100000D01*
X171600000Y-72100000D02*
X171600000Y-69700000D01*
X171600000Y-69700000D02*
X176400000Y-69700000D01*
X176400000Y-69700000D02*
X176400000Y-72100000D01*
G36*
X176400000Y-72100000D02*
G01*
X171600000Y-72100000D01*
X171600000Y-69700000D01*
X176400000Y-69700000D01*
X176400000Y-72100000D01*
G37*
X140800000Y-60500000D02*
X136000000Y-60500000D01*
X136000000Y-60500000D02*
X136000000Y-58100000D01*
X136000000Y-58100000D02*
X140800000Y-58100000D01*
X140800000Y-58100000D02*
X140800000Y-60500000D01*
G36*
X140800000Y-60500000D02*
G01*
X136000000Y-60500000D01*
X136000000Y-58100000D01*
X140800000Y-58100000D01*
X140800000Y-60500000D01*
G37*
X176400000Y-83700000D02*
X171600000Y-83700000D01*
X171600000Y-83700000D02*
X171600000Y-81300000D01*
X171600000Y-81300000D02*
X176400000Y-81300000D01*
X176400000Y-81300000D02*
X176400000Y-83700000D01*
G36*
X176400000Y-83700000D02*
G01*
X171600000Y-83700000D01*
X171600000Y-81300000D01*
X176400000Y-81300000D01*
X176400000Y-83700000D01*
G37*
X140800000Y-114100000D02*
X136000000Y-114100000D01*
X136000000Y-114100000D02*
X136000000Y-111700000D01*
X136000000Y-111700000D02*
X140800000Y-111700000D01*
X140800000Y-111700000D02*
X140800000Y-114100000D01*
G36*
X140800000Y-114100000D02*
G01*
X136000000Y-114100000D01*
X136000000Y-111700000D01*
X140800000Y-111700000D01*
X140800000Y-114100000D01*
G37*
X140800000Y-79300000D02*
X136000000Y-79300000D01*
X136000000Y-79300000D02*
X136000000Y-76900000D01*
X136000000Y-76900000D02*
X140800000Y-76900000D01*
X140800000Y-76900000D02*
X140800000Y-79300000D01*
G36*
X140800000Y-79300000D02*
G01*
X136000000Y-79300000D01*
X136000000Y-76900000D01*
X140800000Y-76900000D01*
X140800000Y-79300000D01*
G37*
%TO.C,G\u002A\u002A\u002A*%
G36*
X148450110Y-87147419D02*
G01*
X148628360Y-87204884D01*
X148776100Y-87307934D01*
X148880115Y-87411949D01*
X148880115Y-87286666D01*
X148884081Y-87215287D01*
X148909239Y-87171248D01*
X148971613Y-87161383D01*
X149063112Y-87161383D01*
X149063112Y-88844957D01*
X148880115Y-88844957D01*
X148880115Y-88273499D01*
X148880108Y-88246400D01*
X148879053Y-88032524D01*
X148875135Y-87876675D01*
X148866822Y-87765167D01*
X148852580Y-87684311D01*
X148830877Y-87620423D01*
X148800178Y-87559814D01*
X148722067Y-87455663D01*
X148569027Y-87344384D01*
X148502489Y-87313768D01*
X148389817Y-87278187D01*
X148290218Y-87281405D01*
X148171557Y-87321578D01*
X148104912Y-87355122D01*
X148040112Y-87409954D01*
X147992963Y-87488523D01*
X147960847Y-87600693D01*
X147941148Y-87756328D01*
X147931248Y-87965292D01*
X147928530Y-88237448D01*
X147928530Y-88844957D01*
X147738423Y-88844957D01*
X147751128Y-88195317D01*
X147751235Y-88189876D01*
X147758498Y-87924236D01*
X147770399Y-87720239D01*
X147789883Y-87566554D01*
X147819897Y-87451850D01*
X147863388Y-87364794D01*
X147923302Y-87294056D01*
X148002587Y-87228303D01*
X148090956Y-87178392D01*
X148263569Y-87137826D01*
X148450110Y-87147419D01*
G37*
G36*
X155486068Y-83209908D02*
G01*
X155603343Y-83270024D01*
X155704710Y-83360294D01*
X155797406Y-83470458D01*
X155797406Y-83339552D01*
X155802018Y-83260081D01*
X155827511Y-83217938D01*
X155888905Y-83208646D01*
X155980403Y-83208646D01*
X155980403Y-84892219D01*
X155802443Y-84892219D01*
X155790775Y-84315778D01*
X155786553Y-84137531D01*
X155779524Y-83957883D01*
X155769264Y-83827298D01*
X155754097Y-83732078D01*
X155732347Y-83658525D01*
X155702338Y-83592940D01*
X155642222Y-83498778D01*
X155528259Y-83389515D01*
X155403058Y-83335832D01*
X155280173Y-83345668D01*
X155215251Y-83366737D01*
X155181636Y-83356226D01*
X155175216Y-83297662D01*
X155197657Y-83229270D01*
X155267339Y-83187651D01*
X155368771Y-83181824D01*
X155486068Y-83209908D01*
G37*
G36*
X154236836Y-88233669D02*
G01*
X154163237Y-88455301D01*
X154036750Y-88643634D01*
X153976357Y-88702921D01*
X153868520Y-88787667D01*
X153775585Y-88837980D01*
X153680047Y-88859331D01*
X153494299Y-88864386D01*
X153294378Y-88835943D01*
X153110096Y-88776744D01*
X153009919Y-88725683D01*
X152956748Y-88674552D01*
X152942651Y-88610871D01*
X152942651Y-88519067D01*
X153121194Y-88611698D01*
X153232677Y-88664177D01*
X153416906Y-88717969D01*
X153582524Y-88714566D01*
X153745718Y-88655094D01*
X153757057Y-88649054D01*
X153904330Y-88534668D01*
X154004151Y-88374111D01*
X154062044Y-88158718D01*
X154086588Y-88003170D01*
X152869452Y-88003170D01*
X152870129Y-87856772D01*
X153017680Y-87856772D01*
X154072123Y-87856772D01*
X154040261Y-87745675D01*
X153976370Y-87584040D01*
X153855352Y-87424275D01*
X153693068Y-87324185D01*
X153521401Y-87285202D01*
X153353177Y-87307150D01*
X153212476Y-87392717D01*
X153105960Y-87537683D01*
X153040292Y-87737824D01*
X153017680Y-87856772D01*
X152870129Y-87856772D01*
X152870256Y-87829323D01*
X152900430Y-87611091D01*
X152984267Y-87424704D01*
X153110864Y-87279974D01*
X153269326Y-87181561D01*
X153448760Y-87134126D01*
X153638270Y-87142329D01*
X153826965Y-87210831D01*
X154003948Y-87344294D01*
X154010875Y-87351317D01*
X154144568Y-87537561D01*
X154227076Y-87757940D01*
X154239925Y-87856772D01*
X154257974Y-87995596D01*
X154236836Y-88233669D01*
G37*
G36*
X152574014Y-88103208D02*
G01*
X152531968Y-88356931D01*
X152440097Y-88566106D01*
X152301473Y-88725282D01*
X152119164Y-88829010D01*
X152082955Y-88840840D01*
X151921576Y-88867740D01*
X151750911Y-88863342D01*
X151587316Y-88831882D01*
X151447148Y-88777598D01*
X151346764Y-88704724D01*
X151302520Y-88617498D01*
X151291063Y-88518136D01*
X151465633Y-88615705D01*
X151514316Y-88641040D01*
X151720761Y-88708486D01*
X151916040Y-88712611D01*
X152090134Y-88658063D01*
X152233025Y-88549495D01*
X152334695Y-88391555D01*
X152385127Y-88188894D01*
X152402973Y-88003170D01*
X151175683Y-88003170D01*
X151198059Y-87814235D01*
X151203784Y-87776829D01*
X151368876Y-87776829D01*
X151369084Y-87790042D01*
X151375189Y-87817685D01*
X151398269Y-87836399D01*
X151449569Y-87847924D01*
X151540334Y-87854000D01*
X151681808Y-87856370D01*
X151885235Y-87856772D01*
X152401595Y-87856772D01*
X152376784Y-87756124D01*
X152344085Y-87654704D01*
X152249596Y-87490973D01*
X152123833Y-87371911D01*
X151978733Y-87300251D01*
X151826233Y-87278729D01*
X151678268Y-87310079D01*
X151546776Y-87397036D01*
X151443692Y-87542335D01*
X151423938Y-87585989D01*
X151384540Y-87695666D01*
X151368876Y-87776829D01*
X151203784Y-87776829D01*
X151211335Y-87727492D01*
X151281825Y-87500669D01*
X151396022Y-87325236D01*
X151550478Y-87207133D01*
X151555335Y-87204703D01*
X151764343Y-87136522D01*
X151967745Y-87140888D01*
X152162543Y-87217207D01*
X152345743Y-87364884D01*
X152425948Y-87457940D01*
X152514422Y-87611352D01*
X152562079Y-87790679D01*
X152566273Y-87856772D01*
X152576453Y-88017224D01*
X152574014Y-88103208D01*
G37*
G36*
X148569020Y-82550324D02*
G01*
X148841759Y-83538201D01*
X148853537Y-83580757D01*
X148924140Y-83831425D01*
X148989026Y-84054517D01*
X149045534Y-84241413D01*
X149091003Y-84383491D01*
X149122773Y-84472127D01*
X149138182Y-84498702D01*
X149138513Y-84498265D01*
X149155178Y-84453968D01*
X149188520Y-84348983D01*
X149235743Y-84192697D01*
X149294051Y-83994497D01*
X149360646Y-83763771D01*
X149432734Y-83509907D01*
X149441575Y-83478561D01*
X149528445Y-83175362D01*
X149599341Y-82938200D01*
X149655811Y-82762493D01*
X149699400Y-82643665D01*
X149731655Y-82577134D01*
X149754123Y-82558322D01*
X149763032Y-82565736D01*
X149797560Y-82631771D01*
X149849278Y-82762524D01*
X149916692Y-82953830D01*
X149998306Y-83201524D01*
X150092625Y-83501441D01*
X150167360Y-83743057D01*
X150239018Y-83973551D01*
X150301476Y-84173248D01*
X150351659Y-84332355D01*
X150386491Y-84441079D01*
X150402898Y-84489625D01*
X150404366Y-84491141D01*
X150423063Y-84459512D01*
X150458156Y-84367190D01*
X150506938Y-84222443D01*
X150566705Y-84033541D01*
X150634748Y-83808750D01*
X150708363Y-83556340D01*
X150712541Y-83541761D01*
X150794747Y-83255588D01*
X150860009Y-83031694D01*
X150911313Y-82862315D01*
X150951650Y-82739688D01*
X150984006Y-82656050D01*
X151011370Y-82603637D01*
X151036731Y-82574687D01*
X151063078Y-82561437D01*
X151093399Y-82556122D01*
X151154009Y-82552413D01*
X151181368Y-82575261D01*
X151169574Y-82647621D01*
X151169141Y-82649349D01*
X151149349Y-82721303D01*
X151112845Y-82847767D01*
X151062755Y-83018351D01*
X151002206Y-83222663D01*
X150934325Y-83450313D01*
X150862237Y-83690910D01*
X150789069Y-83934062D01*
X150717947Y-84169380D01*
X150651999Y-84386473D01*
X150594350Y-84574949D01*
X150548127Y-84724418D01*
X150516456Y-84824488D01*
X150502465Y-84864770D01*
X150485200Y-84878687D01*
X150421396Y-84892219D01*
X150398031Y-84880938D01*
X150369833Y-84841538D01*
X150334571Y-84766995D01*
X150289540Y-84650288D01*
X150232036Y-84484398D01*
X150159354Y-84262304D01*
X150068789Y-83976986D01*
X149993970Y-83742780D01*
X149921992Y-83524904D01*
X149859008Y-83341837D01*
X149808127Y-83202375D01*
X149772456Y-83115314D01*
X149755106Y-83089450D01*
X149750455Y-83098758D01*
X149726365Y-83165910D01*
X149686413Y-83287949D01*
X149633891Y-83454120D01*
X149572090Y-83653665D01*
X149504303Y-83875827D01*
X149433821Y-84109849D01*
X149363936Y-84344975D01*
X149297941Y-84570448D01*
X149239126Y-84775510D01*
X149226184Y-84815891D01*
X149187447Y-84876160D01*
X149128373Y-84885308D01*
X149121435Y-84883774D01*
X149097519Y-84868872D01*
X149071773Y-84833628D01*
X149041613Y-84770885D01*
X149004451Y-84673487D01*
X148957703Y-84534279D01*
X148898781Y-84346105D01*
X148825101Y-84101809D01*
X148734076Y-83794236D01*
X148702475Y-83686931D01*
X148624167Y-83421387D01*
X148552617Y-83179263D01*
X148490600Y-82969921D01*
X148440894Y-82802722D01*
X148406273Y-82687030D01*
X148389514Y-82632205D01*
X148379171Y-82591929D01*
X148394581Y-82557438D01*
X148465905Y-82550090D01*
X148569020Y-82550324D01*
G37*
G36*
X156602593Y-88844957D02*
G01*
X156419596Y-88844957D01*
X156419596Y-87161383D01*
X156602593Y-87161383D01*
X156602593Y-88844957D01*
G37*
G36*
X153854994Y-84150470D02*
G01*
X153812947Y-84404193D01*
X153721077Y-84613368D01*
X153582453Y-84772544D01*
X153400144Y-84876272D01*
X153363935Y-84888102D01*
X153202556Y-84915002D01*
X153031890Y-84910604D01*
X152868296Y-84879145D01*
X152728128Y-84824860D01*
X152627744Y-84751986D01*
X152583500Y-84664760D01*
X152572043Y-84565399D01*
X152746613Y-84662968D01*
X152795295Y-84688302D01*
X153001741Y-84755748D01*
X153197020Y-84759873D01*
X153371114Y-84705326D01*
X153514005Y-84596757D01*
X153615675Y-84438817D01*
X153666107Y-84236156D01*
X153683952Y-84050432D01*
X152456662Y-84050432D01*
X152479039Y-83861497D01*
X152484764Y-83824091D01*
X152649856Y-83824091D01*
X152650064Y-83837304D01*
X152656169Y-83864948D01*
X152679249Y-83883661D01*
X152730549Y-83895186D01*
X152821314Y-83901263D01*
X152962788Y-83903632D01*
X153166215Y-83904035D01*
X153682575Y-83904035D01*
X153657764Y-83803386D01*
X153625065Y-83701966D01*
X153530575Y-83538236D01*
X153404812Y-83419173D01*
X153259713Y-83347513D01*
X153107213Y-83325991D01*
X152959248Y-83357341D01*
X152827756Y-83444298D01*
X152724672Y-83589598D01*
X152704918Y-83633251D01*
X152665520Y-83742928D01*
X152649856Y-83824091D01*
X152484764Y-83824091D01*
X152492315Y-83774755D01*
X152562805Y-83547932D01*
X152677002Y-83372498D01*
X152831458Y-83254395D01*
X152836315Y-83251965D01*
X153045323Y-83183784D01*
X153248724Y-83188151D01*
X153443523Y-83264469D01*
X153626723Y-83412146D01*
X153706928Y-83505202D01*
X153795402Y-83658614D01*
X153843058Y-83837941D01*
X153847252Y-83904035D01*
X153857432Y-84064486D01*
X153854994Y-84150470D01*
G37*
G36*
X149650337Y-87161388D02*
G01*
X149673359Y-87164412D01*
X149690829Y-87179036D01*
X149703512Y-87214060D01*
X149712173Y-87278284D01*
X149717577Y-87380507D01*
X149720490Y-87529529D01*
X149721676Y-87734150D01*
X149721902Y-88003170D01*
X149721901Y-88021969D01*
X149721638Y-88286722D01*
X149720367Y-88487624D01*
X149717321Y-88633475D01*
X149711736Y-88733074D01*
X149702847Y-88795223D01*
X149689889Y-88828719D01*
X149672096Y-88842364D01*
X149648703Y-88844957D01*
X149647068Y-88844952D01*
X149624046Y-88841928D01*
X149606576Y-88827304D01*
X149593894Y-88792280D01*
X149585233Y-88728056D01*
X149579829Y-88625833D01*
X149576916Y-88476811D01*
X149575729Y-88272190D01*
X149575504Y-88003170D01*
X149575504Y-87984371D01*
X149575767Y-87719619D01*
X149577039Y-87518717D01*
X149580085Y-87372866D01*
X149585669Y-87273266D01*
X149594558Y-87211118D01*
X149607517Y-87177621D01*
X149625310Y-87163976D01*
X149648703Y-87161383D01*
X149650337Y-87161388D01*
G37*
G36*
X158501600Y-88276195D02*
G01*
X158431148Y-88503829D01*
X158313203Y-88679588D01*
X158149642Y-88800749D01*
X157942338Y-88864590D01*
X157740782Y-88865830D01*
X157540576Y-88809789D01*
X157374498Y-88701657D01*
X157261383Y-88595992D01*
X157262187Y-88784524D01*
X157289373Y-89011191D01*
X157369196Y-89198341D01*
X157496766Y-89335320D01*
X157667197Y-89419743D01*
X157875605Y-89449223D01*
X158117106Y-89421376D01*
X158386815Y-89333815D01*
X158417910Y-89339027D01*
X158432564Y-89403340D01*
X158422924Y-89457599D01*
X158377171Y-89501118D01*
X158277017Y-89538931D01*
X158236063Y-89551354D01*
X158140320Y-89581015D01*
X158084870Y-89599112D01*
X158040471Y-89603367D01*
X157942109Y-89602415D01*
X157815260Y-89595648D01*
X157686556Y-89579887D01*
X157469534Y-89511636D01*
X157302730Y-89392590D01*
X157182550Y-89220618D01*
X157172203Y-89199315D01*
X157148160Y-89144147D01*
X157129601Y-89085551D01*
X157115650Y-89013558D01*
X157105432Y-88918202D01*
X157098069Y-88789517D01*
X157092685Y-88617536D01*
X157088404Y-88392292D01*
X157084350Y-88103819D01*
X157082938Y-87995940D01*
X157261383Y-87995940D01*
X157262293Y-88070329D01*
X157279195Y-88264468D01*
X157323040Y-88411131D01*
X157401124Y-88528267D01*
X157520747Y-88633825D01*
X157551049Y-88654301D01*
X157712751Y-88714804D01*
X157887880Y-88715514D01*
X158056518Y-88658961D01*
X158198748Y-88547678D01*
X158242660Y-88488263D01*
X158316593Y-88319108D01*
X158355971Y-88116924D01*
X158357493Y-87905016D01*
X158317858Y-87706686D01*
X158242293Y-87552599D01*
X158116278Y-87414920D01*
X157961626Y-87324063D01*
X157792318Y-87285303D01*
X157622336Y-87303915D01*
X157465661Y-87385173D01*
X157428158Y-87416684D01*
X157346948Y-87511111D01*
X157295747Y-87628172D01*
X157269058Y-87784304D01*
X157261383Y-87995940D01*
X157082938Y-87995940D01*
X157072015Y-87161383D01*
X157166699Y-87161383D01*
X157216920Y-87165580D01*
X157253237Y-87197319D01*
X157261383Y-87279325D01*
X157261385Y-87286071D01*
X157263965Y-87359470D01*
X157278685Y-87367865D01*
X157316221Y-87318975D01*
X157401341Y-87241262D01*
X157542211Y-87175181D01*
X157707779Y-87138243D01*
X157873213Y-87138497D01*
X157892944Y-87141441D01*
X158101556Y-87208461D01*
X158274068Y-87337583D01*
X158413944Y-87531323D01*
X158470043Y-87642823D01*
X158503457Y-87743992D01*
X158518930Y-87860613D01*
X158520014Y-87905016D01*
X158522858Y-88021470D01*
X158501600Y-88276195D01*
G37*
G36*
X165925960Y-82879263D02*
G01*
X166385560Y-82914514D01*
X166819491Y-83015684D01*
X167222808Y-83179772D01*
X167590563Y-83403773D01*
X167917811Y-83684686D01*
X168199604Y-84019507D01*
X168430996Y-84405235D01*
X168580548Y-84705139D01*
X168487504Y-84815714D01*
X168453294Y-84864047D01*
X168379305Y-85011444D01*
X168299264Y-85221809D01*
X168215475Y-85488750D01*
X168130247Y-85805872D01*
X168077094Y-86005026D01*
X168013326Y-86202122D01*
X167950978Y-86343070D01*
X167886447Y-86437205D01*
X167835898Y-86482056D01*
X167761007Y-86495991D01*
X167684294Y-86438545D01*
X167647538Y-86392674D01*
X167606437Y-86326077D01*
X167567584Y-86238870D01*
X167526221Y-86118394D01*
X167477591Y-85951989D01*
X167416939Y-85726994D01*
X167355101Y-85499485D01*
X167282921Y-85257762D01*
X167217568Y-85072264D01*
X167155412Y-84934043D01*
X167092823Y-84834148D01*
X167026171Y-84763630D01*
X166968205Y-84719952D01*
X166863079Y-84678832D01*
X166762031Y-84702901D01*
X166649116Y-84793419D01*
X166597010Y-84857591D01*
X166533479Y-84970503D01*
X166467210Y-85128289D01*
X166395696Y-85337750D01*
X166316430Y-85605686D01*
X166226905Y-85938898D01*
X166158786Y-86164813D01*
X166082055Y-86342598D01*
X166002588Y-86452932D01*
X165921791Y-86493905D01*
X165841068Y-86463605D01*
X165820295Y-86444632D01*
X165771003Y-86381442D01*
X165723461Y-86288428D01*
X165673538Y-86155121D01*
X165617108Y-85971055D01*
X165550040Y-85725761D01*
X165488953Y-85500951D01*
X165416684Y-85258756D01*
X165351246Y-85072876D01*
X165289007Y-84934362D01*
X165226336Y-84834263D01*
X165159600Y-84763630D01*
X165101634Y-84719952D01*
X164996508Y-84678832D01*
X164895460Y-84702901D01*
X164782546Y-84793419D01*
X164726940Y-84862737D01*
X164663994Y-84976501D01*
X164598221Y-85134756D01*
X164527087Y-85344391D01*
X164448056Y-85612293D01*
X164358594Y-85945348D01*
X164310169Y-86111526D01*
X164231608Y-86306557D01*
X164149441Y-86428664D01*
X164065327Y-86477848D01*
X163980923Y-86454108D01*
X163897888Y-86357445D01*
X163817880Y-86187859D01*
X163742558Y-85945348D01*
X163658756Y-85635595D01*
X163568748Y-85335205D01*
X163486391Y-85096635D01*
X163412906Y-84923385D01*
X163349515Y-84818954D01*
X163253745Y-84705139D01*
X163403297Y-84405235D01*
X163407135Y-84397567D01*
X163639515Y-84012765D01*
X163922204Y-83678925D01*
X164250255Y-83399049D01*
X164618722Y-83176142D01*
X165022656Y-83013204D01*
X165457114Y-82913240D01*
X165917147Y-82879251D01*
X165925960Y-82879263D01*
G37*
G36*
X166872653Y-84876059D02*
G01*
X166928649Y-84904288D01*
X166983468Y-84970615D01*
X167040199Y-85081781D01*
X167101929Y-85244524D01*
X167171749Y-85465583D01*
X167252747Y-85751698D01*
X167308341Y-85948067D01*
X167386221Y-86191773D01*
X167459309Y-86375828D01*
X167531328Y-86507909D01*
X167606004Y-86595693D01*
X167687061Y-86646855D01*
X167730384Y-86662780D01*
X167813018Y-86669703D01*
X167907698Y-86632821D01*
X167915141Y-86628864D01*
X167984973Y-86578096D01*
X168047942Y-86501325D01*
X168108287Y-86389395D01*
X168170247Y-86233150D01*
X168238062Y-86023435D01*
X168315970Y-85751094D01*
X168339478Y-85666187D01*
X168418423Y-85391424D01*
X168483522Y-85183797D01*
X168536015Y-85039815D01*
X168577142Y-84955986D01*
X168608145Y-84928819D01*
X168623640Y-84938121D01*
X168652526Y-85005282D01*
X168678077Y-85126829D01*
X168698521Y-85290319D01*
X168712087Y-85483308D01*
X168717002Y-85693353D01*
X168710195Y-85895394D01*
X168645861Y-86337916D01*
X168517127Y-86754668D01*
X168328250Y-87140115D01*
X168083493Y-87488722D01*
X167787113Y-87794954D01*
X167443370Y-88053277D01*
X167056524Y-88258155D01*
X166630835Y-88404055D01*
X166438364Y-88442708D01*
X166133228Y-88473386D01*
X165809126Y-88477516D01*
X165494668Y-88455059D01*
X165218462Y-88405978D01*
X165011848Y-88345790D01*
X164602270Y-88173594D01*
X164233613Y-87944972D01*
X163910096Y-87665372D01*
X163635938Y-87340241D01*
X163415359Y-86975026D01*
X163252578Y-86575175D01*
X163151816Y-86146135D01*
X163117291Y-85693353D01*
X163118615Y-85584530D01*
X163128178Y-85381656D01*
X163145484Y-85202205D01*
X163168762Y-85058619D01*
X163196241Y-84963343D01*
X163226148Y-84928819D01*
X163235230Y-84931661D01*
X163269028Y-84976219D01*
X163313183Y-85077669D01*
X163368992Y-85239671D01*
X163437754Y-85465883D01*
X163520763Y-85759966D01*
X163572546Y-85941959D01*
X163651165Y-86187720D01*
X163724869Y-86373427D01*
X163797401Y-86506742D01*
X163872504Y-86595330D01*
X163953920Y-86646855D01*
X163997243Y-86662780D01*
X164079877Y-86669703D01*
X164174556Y-86632821D01*
X164185387Y-86626989D01*
X164254596Y-86575481D01*
X164317099Y-86497796D01*
X164377093Y-86384811D01*
X164438774Y-86227403D01*
X164506339Y-86016449D01*
X164583986Y-85742825D01*
X164611326Y-85643750D01*
X164688179Y-85380509D01*
X164755000Y-85180207D01*
X164814885Y-85036120D01*
X164870927Y-84941526D01*
X164926221Y-84889701D01*
X164983861Y-84873919D01*
X165006083Y-84876059D01*
X165062079Y-84904288D01*
X165116898Y-84970615D01*
X165173628Y-85081781D01*
X165235359Y-85244524D01*
X165305179Y-85465583D01*
X165386177Y-85751698D01*
X165441771Y-85948067D01*
X165519651Y-86191773D01*
X165592738Y-86375828D01*
X165664757Y-86507909D01*
X165739433Y-86595693D01*
X165820491Y-86646855D01*
X165863813Y-86662780D01*
X165946448Y-86669703D01*
X166041127Y-86632821D01*
X166051957Y-86626989D01*
X166121167Y-86575481D01*
X166183670Y-86497796D01*
X166243663Y-86384811D01*
X166305344Y-86227403D01*
X166372910Y-86016449D01*
X166450557Y-85742825D01*
X166477896Y-85643750D01*
X166554749Y-85380509D01*
X166621571Y-85180207D01*
X166681456Y-85036120D01*
X166737498Y-84941526D01*
X166792792Y-84889701D01*
X166850432Y-84873919D01*
X166872653Y-84876059D01*
G37*
G36*
X155317855Y-87145901D02*
G01*
X155499242Y-87210752D01*
X155647665Y-87327865D01*
X155760807Y-87456726D01*
X155760807Y-87309055D01*
X155765071Y-87222781D01*
X155786277Y-87173541D01*
X155834005Y-87161383D01*
X155835640Y-87161388D01*
X155858662Y-87164412D01*
X155876132Y-87179036D01*
X155888814Y-87214060D01*
X155897475Y-87278284D01*
X155902880Y-87380507D01*
X155905792Y-87529529D01*
X155906979Y-87734150D01*
X155907204Y-88003170D01*
X155906978Y-88255763D01*
X155905778Y-88464770D01*
X155902873Y-88617529D01*
X155897533Y-88722821D01*
X155889028Y-88789428D01*
X155876628Y-88826132D01*
X155859602Y-88841714D01*
X155837221Y-88844957D01*
X155825365Y-88844372D01*
X155802046Y-88834559D01*
X155785368Y-88804363D01*
X155773820Y-88743224D01*
X155765894Y-88640577D01*
X155760081Y-88485862D01*
X155754872Y-88268516D01*
X155750679Y-88098681D01*
X155743562Y-87917501D01*
X155733468Y-87786934D01*
X155718795Y-87693869D01*
X155697942Y-87625196D01*
X155669308Y-87567803D01*
X155665077Y-87560688D01*
X155542077Y-87406334D01*
X155394104Y-87317773D01*
X155212080Y-87289481D01*
X155182298Y-87289976D01*
X155055817Y-87308094D01*
X154956930Y-87357348D01*
X154882672Y-87444638D01*
X154830077Y-87576864D01*
X154796181Y-87760929D01*
X154778018Y-88003731D01*
X154772622Y-88312172D01*
X154772593Y-88381264D01*
X154771641Y-88568928D01*
X154768214Y-88697726D01*
X154760794Y-88778692D01*
X154747867Y-88822863D01*
X154727915Y-88841273D01*
X154699423Y-88844957D01*
X154676210Y-88842775D01*
X154655916Y-88828796D01*
X154642014Y-88792763D01*
X154633299Y-88724445D01*
X154628566Y-88613616D01*
X154626609Y-88450046D01*
X154626224Y-88223507D01*
X154627056Y-88062361D01*
X154633853Y-87816035D01*
X154649404Y-87626838D01*
X154675987Y-87484473D01*
X154715877Y-87378641D01*
X154771351Y-87299046D01*
X154844687Y-87235390D01*
X154938603Y-87182472D01*
X155124109Y-87135683D01*
X155317855Y-87145901D01*
G37*
G36*
X147375375Y-88276195D02*
G01*
X147304923Y-88503829D01*
X147186979Y-88679588D01*
X147023417Y-88800749D01*
X146816114Y-88864590D01*
X146614557Y-88865830D01*
X146414352Y-88809789D01*
X146248273Y-88701657D01*
X146135158Y-88595992D01*
X146135962Y-88784524D01*
X146163148Y-89011191D01*
X146242972Y-89198341D01*
X146370541Y-89335320D01*
X146540972Y-89419743D01*
X146749381Y-89449223D01*
X146990881Y-89421376D01*
X147260590Y-89333815D01*
X147291685Y-89339027D01*
X147306340Y-89403340D01*
X147296699Y-89457599D01*
X147250946Y-89501118D01*
X147150792Y-89538931D01*
X147109838Y-89551354D01*
X147014095Y-89581015D01*
X146958645Y-89599112D01*
X146914246Y-89603367D01*
X146815884Y-89602415D01*
X146689035Y-89595648D01*
X146560331Y-89579887D01*
X146343310Y-89511636D01*
X146176505Y-89392590D01*
X146056325Y-89220618D01*
X146045979Y-89199315D01*
X146021935Y-89144147D01*
X146003376Y-89085551D01*
X145989426Y-89013558D01*
X145979207Y-88918202D01*
X145971844Y-88789517D01*
X145966460Y-88617536D01*
X145962180Y-88392292D01*
X145958125Y-88103819D01*
X145956713Y-87995940D01*
X146135158Y-87995940D01*
X146136069Y-88070329D01*
X146152971Y-88264468D01*
X146196815Y-88411131D01*
X146274900Y-88528267D01*
X146394523Y-88633825D01*
X146424824Y-88654301D01*
X146586526Y-88714804D01*
X146761655Y-88715514D01*
X146930293Y-88658961D01*
X147072523Y-88547678D01*
X147116436Y-88488263D01*
X147190369Y-88319108D01*
X147229746Y-88116924D01*
X147231268Y-87905016D01*
X147191633Y-87706686D01*
X147116068Y-87552599D01*
X146990053Y-87414920D01*
X146835401Y-87324063D01*
X146666093Y-87285303D01*
X146496111Y-87303915D01*
X146339437Y-87385173D01*
X146301933Y-87416684D01*
X146220724Y-87511111D01*
X146169523Y-87628172D01*
X146142833Y-87784304D01*
X146135158Y-87995940D01*
X145956713Y-87995940D01*
X145945790Y-87161383D01*
X146040474Y-87161383D01*
X146090695Y-87165580D01*
X146127012Y-87197319D01*
X146135158Y-87279325D01*
X146135160Y-87286071D01*
X146137740Y-87359470D01*
X146152460Y-87367865D01*
X146189996Y-87318975D01*
X146275116Y-87241262D01*
X146415986Y-87175181D01*
X146581554Y-87138243D01*
X146746988Y-87138497D01*
X146766719Y-87141441D01*
X146975331Y-87208461D01*
X147147844Y-87337583D01*
X147287719Y-87531323D01*
X147343819Y-87642823D01*
X147377232Y-87743992D01*
X147392705Y-87860613D01*
X147393789Y-87905016D01*
X147396633Y-88021470D01*
X147375375Y-88276195D01*
G37*
G36*
X148209705Y-84775691D02*
G01*
X148059732Y-84876796D01*
X147952875Y-84911439D01*
X147755543Y-84919855D01*
X147563569Y-84861492D01*
X147391061Y-84739253D01*
X147269740Y-84621664D01*
X147269740Y-84756942D01*
X147264357Y-84844331D01*
X147237845Y-84883797D01*
X147175335Y-84892219D01*
X147080930Y-84892219D01*
X147092986Y-84224280D01*
X147093632Y-84189635D01*
X147099149Y-83986065D01*
X147261581Y-83986065D01*
X147277182Y-84201737D01*
X147277252Y-84202705D01*
X147312463Y-84398547D01*
X147392683Y-84550740D01*
X147529056Y-84680466D01*
X147616861Y-84732384D01*
X147764671Y-84770044D01*
X147907414Y-84756381D01*
X148031768Y-84698689D01*
X148124412Y-84604260D01*
X148172024Y-84480387D01*
X148161283Y-84334363D01*
X148145629Y-84291628D01*
X148081724Y-84204595D01*
X147973267Y-84136539D01*
X147810752Y-84082571D01*
X147584670Y-84037802D01*
X147261581Y-83986065D01*
X147099149Y-83986065D01*
X147100800Y-83925151D01*
X147112543Y-83722033D01*
X147131469Y-83569682D01*
X147160184Y-83457496D01*
X147201294Y-83374875D01*
X147257408Y-83311218D01*
X147331132Y-83255925D01*
X147352171Y-83243756D01*
X147485052Y-83203915D01*
X147655466Y-83192947D01*
X147838910Y-83210801D01*
X148010879Y-83257422D01*
X148055753Y-83275269D01*
X148139173Y-83317891D01*
X148176280Y-83364469D01*
X148184726Y-83432812D01*
X148184726Y-83541126D01*
X148014719Y-83441496D01*
X147867080Y-83372269D01*
X147689850Y-83335240D01*
X147533544Y-83351942D01*
X147408285Y-83418903D01*
X147324191Y-83532650D01*
X147291384Y-83689709D01*
X147288040Y-83846404D01*
X147608281Y-83892773D01*
X147721042Y-83911112D01*
X147957064Y-83969422D01*
X148129936Y-84049060D01*
X148245805Y-84154889D01*
X148310818Y-84291772D01*
X148331124Y-84464572D01*
X148328356Y-84480387D01*
X148301841Y-84631868D01*
X148209705Y-84775691D01*
G37*
G36*
X150273952Y-87136943D02*
G01*
X150394164Y-87182264D01*
X150507986Y-87258383D01*
X150600745Y-87362680D01*
X150673004Y-87472478D01*
X150673245Y-87316931D01*
X150678382Y-87220039D01*
X150699886Y-87172895D01*
X150746685Y-87161383D01*
X150748320Y-87161388D01*
X150771342Y-87164412D01*
X150788812Y-87179036D01*
X150801495Y-87214060D01*
X150810155Y-87278284D01*
X150815560Y-87380507D01*
X150818472Y-87529529D01*
X150819659Y-87734150D01*
X150819884Y-88003170D01*
X150819884Y-88021969D01*
X150819621Y-88286722D01*
X150818349Y-88487624D01*
X150815304Y-88633475D01*
X150809719Y-88733074D01*
X150800830Y-88795223D01*
X150787872Y-88828719D01*
X150770079Y-88842364D01*
X150746685Y-88844957D01*
X150722170Y-88842712D01*
X150699541Y-88826930D01*
X150685271Y-88785609D01*
X150677448Y-88706833D01*
X150674158Y-88578690D01*
X150673487Y-88389266D01*
X150670729Y-88211071D01*
X150662173Y-88020553D01*
X150649203Y-87857948D01*
X150633236Y-87745890D01*
X150621381Y-87698392D01*
X150551731Y-87534027D01*
X150452117Y-87403244D01*
X150334196Y-87315468D01*
X150209619Y-87280123D01*
X150090042Y-87306632D01*
X150058989Y-87321838D01*
X150022459Y-87319889D01*
X150014697Y-87258085D01*
X150021683Y-87211949D01*
X150073040Y-87149167D01*
X150162020Y-87125038D01*
X150273952Y-87136943D01*
G37*
G36*
X161876265Y-84104636D02*
G01*
X161869007Y-84135141D01*
X161770308Y-84389325D01*
X161617998Y-84599827D01*
X161420191Y-84761441D01*
X161185004Y-84868962D01*
X160920551Y-84917183D01*
X160634947Y-84900901D01*
X160393316Y-84859511D01*
X160195623Y-85022263D01*
X160151432Y-85057935D01*
X160040694Y-85135791D01*
X159949706Y-85174523D01*
X159855737Y-85185015D01*
X159826782Y-85184781D01*
X159745996Y-85180944D01*
X159713544Y-85173890D01*
X159719240Y-85167236D01*
X159768289Y-85125437D01*
X159856752Y-85055061D01*
X159971426Y-84966713D01*
X160229308Y-84770661D01*
X160101437Y-84639293D01*
X160038650Y-84564175D01*
X159948119Y-84429294D01*
X159872036Y-84288329D01*
X159842257Y-84221498D01*
X159804652Y-84117869D01*
X159782920Y-84012793D01*
X159772919Y-83882379D01*
X159770997Y-83739337D01*
X159956003Y-83739337D01*
X159956103Y-83749107D01*
X159986150Y-84024471D01*
X160065114Y-84266445D01*
X160187802Y-84466484D01*
X160349025Y-84616045D01*
X160543591Y-84706582D01*
X160640278Y-84726632D01*
X160824592Y-84741135D01*
X161009247Y-84732718D01*
X161159222Y-84701662D01*
X161253800Y-84661119D01*
X161438113Y-84527149D01*
X161579990Y-84339317D01*
X161675088Y-84104387D01*
X161719067Y-83829128D01*
X161721543Y-83694314D01*
X161687452Y-83411688D01*
X161601615Y-83168298D01*
X161468363Y-82969642D01*
X161292026Y-82821217D01*
X161076935Y-82728523D01*
X160827421Y-82697057D01*
X160810900Y-82697225D01*
X160569476Y-82729919D01*
X160363968Y-82822801D01*
X160182156Y-82981254D01*
X160081694Y-83115123D01*
X160007184Y-83282155D01*
X159966959Y-83484622D01*
X159956003Y-83739337D01*
X159770997Y-83739337D01*
X159770505Y-83702738D01*
X159770889Y-83620151D01*
X159776271Y-83461731D01*
X159791034Y-83343588D01*
X159819005Y-83242495D01*
X159864011Y-83135224D01*
X159968847Y-82951406D01*
X160149790Y-82750407D01*
X160371923Y-82608287D01*
X160497685Y-82567300D01*
X160691195Y-82538268D01*
X160901348Y-82532976D01*
X161099663Y-82551843D01*
X161257660Y-82595287D01*
X161366989Y-82654801D01*
X161541394Y-82793655D01*
X161694048Y-82965143D01*
X161801401Y-83145437D01*
X161822852Y-83200754D01*
X161874880Y-83408914D01*
X161902648Y-83648463D01*
X161902880Y-83694314D01*
X161903872Y-83890127D01*
X161876265Y-84104636D01*
G37*
G36*
X149721713Y-86529282D02*
G01*
X149775975Y-86592014D01*
X149777421Y-86683638D01*
X149776706Y-86685852D01*
X149735772Y-86743711D01*
X149654711Y-86751768D01*
X149643841Y-86750101D01*
X149571094Y-86709588D01*
X149538844Y-86640483D01*
X149551646Y-86568731D01*
X149614057Y-86520274D01*
X149634450Y-86515261D01*
X149721713Y-86529282D01*
G37*
G36*
X151606530Y-83209908D02*
G01*
X151723804Y-83270024D01*
X151825171Y-83360294D01*
X151917867Y-83470458D01*
X151917867Y-83339552D01*
X151922479Y-83260081D01*
X151947972Y-83217938D01*
X152009366Y-83208646D01*
X152100864Y-83208646D01*
X152100864Y-84892219D01*
X151922904Y-84892219D01*
X151911236Y-84315778D01*
X151907014Y-84137531D01*
X151899985Y-83957883D01*
X151889725Y-83827298D01*
X151874558Y-83732078D01*
X151852808Y-83658525D01*
X151822799Y-83592940D01*
X151762683Y-83498778D01*
X151648720Y-83389515D01*
X151523519Y-83335832D01*
X151400634Y-83345668D01*
X151335713Y-83366737D01*
X151302097Y-83356226D01*
X151295677Y-83297662D01*
X151318118Y-83229270D01*
X151387800Y-83187651D01*
X151489233Y-83181824D01*
X151606530Y-83209908D01*
G37*
G36*
X154562175Y-82765511D02*
G01*
X154584126Y-82774952D01*
X154623551Y-82811038D01*
X154644703Y-82880099D01*
X154655500Y-83002228D01*
X154666477Y-83208646D01*
X154811048Y-83208646D01*
X154892988Y-83212617D01*
X154943166Y-83233720D01*
X154955619Y-83281844D01*
X154948035Y-83322867D01*
X154906742Y-83348636D01*
X154812128Y-83355043D01*
X154668637Y-83355043D01*
X154656581Y-84022983D01*
X154655240Y-84093545D01*
X154648520Y-84340417D01*
X154638017Y-84526400D01*
X154621301Y-84661384D01*
X154595939Y-84755262D01*
X154559500Y-84817927D01*
X154509552Y-84859270D01*
X154443664Y-84889184D01*
X154409068Y-84900540D01*
X154274638Y-84920598D01*
X154156529Y-84904803D01*
X154072581Y-84857799D01*
X154040634Y-84784233D01*
X154042751Y-84752090D01*
X154066709Y-84728275D01*
X154134515Y-84746727D01*
X154240422Y-84777388D01*
X154327132Y-84768185D01*
X154406628Y-84709222D01*
X154424426Y-84689641D01*
X154446183Y-84653353D01*
X154461386Y-84600374D01*
X154471192Y-84519404D01*
X154476762Y-84399141D01*
X154479254Y-84228284D01*
X154479827Y-83995533D01*
X154479827Y-83355043D01*
X154260230Y-83355043D01*
X154162967Y-83353698D01*
X154083844Y-83344819D01*
X154048646Y-83322728D01*
X154040634Y-83281844D01*
X154044671Y-83249423D01*
X154071308Y-83223049D01*
X154137581Y-83211316D01*
X154260230Y-83208646D01*
X154479827Y-83208646D01*
X154479827Y-82971929D01*
X154479881Y-82928608D01*
X154482495Y-82820218D01*
X154493256Y-82766497D01*
X154517902Y-82753058D01*
X154562175Y-82765511D01*
G37*
G36*
X145217530Y-84150470D02*
G01*
X145175483Y-84404193D01*
X145083613Y-84613368D01*
X144944989Y-84772544D01*
X144762680Y-84876272D01*
X144726471Y-84888102D01*
X144565092Y-84915002D01*
X144394426Y-84910604D01*
X144230832Y-84879145D01*
X144090664Y-84824860D01*
X143990280Y-84751986D01*
X143946036Y-84664760D01*
X143934579Y-84565399D01*
X144109149Y-84662968D01*
X144157831Y-84688302D01*
X144364277Y-84755748D01*
X144559556Y-84759873D01*
X144733650Y-84705326D01*
X144876541Y-84596757D01*
X144978211Y-84438817D01*
X145028643Y-84236156D01*
X145046488Y-84050432D01*
X143819198Y-84050432D01*
X143841575Y-83861497D01*
X143847300Y-83824091D01*
X144012392Y-83824091D01*
X144012600Y-83837304D01*
X144018705Y-83864948D01*
X144041785Y-83883661D01*
X144093085Y-83895186D01*
X144183850Y-83901263D01*
X144325324Y-83903632D01*
X144528751Y-83904035D01*
X145045111Y-83904035D01*
X145020300Y-83803386D01*
X144987601Y-83701966D01*
X144893111Y-83538236D01*
X144767349Y-83419173D01*
X144622249Y-83347513D01*
X144469749Y-83325991D01*
X144321784Y-83357341D01*
X144190292Y-83444298D01*
X144087208Y-83589598D01*
X144067454Y-83633251D01*
X144028056Y-83742928D01*
X144012392Y-83824091D01*
X143847300Y-83824091D01*
X143854851Y-83774755D01*
X143925341Y-83547932D01*
X144039538Y-83372498D01*
X144193994Y-83254395D01*
X144198851Y-83251965D01*
X144407859Y-83183784D01*
X144611260Y-83188151D01*
X144806059Y-83264469D01*
X144989259Y-83412146D01*
X145069464Y-83505202D01*
X145157938Y-83658614D01*
X145205595Y-83837941D01*
X145209788Y-83904035D01*
X145219968Y-84064486D01*
X145217530Y-84150470D01*
G37*
G36*
X156571162Y-86523188D02*
G01*
X156624608Y-86580144D01*
X156642231Y-86663052D01*
X156614793Y-86734390D01*
X156607370Y-86740928D01*
X156532352Y-86761883D01*
X156450722Y-86738997D01*
X156400001Y-86681510D01*
X156395324Y-86662482D01*
X156409692Y-86576481D01*
X156472127Y-86521948D01*
X156561913Y-86519598D01*
X156571162Y-86523188D01*
G37*
G36*
X159384149Y-83737536D02*
G01*
X159383978Y-83787422D01*
X159379890Y-83994560D01*
X159371181Y-84187533D01*
X159358948Y-84346669D01*
X159344288Y-84452293D01*
X159333654Y-84495983D01*
X159257635Y-84676824D01*
X159145101Y-84811981D01*
X159005971Y-84888658D01*
X158918786Y-84909308D01*
X158704014Y-84915852D01*
X158512454Y-84853499D01*
X158346311Y-84722805D01*
X158249567Y-84618471D01*
X158249567Y-84755345D01*
X158246331Y-84826263D01*
X158225530Y-84878960D01*
X158176368Y-84892219D01*
X158174734Y-84892214D01*
X158151712Y-84889190D01*
X158134242Y-84874566D01*
X158121559Y-84839542D01*
X158112899Y-84775319D01*
X158107494Y-84673096D01*
X158104582Y-84524074D01*
X158103395Y-84319452D01*
X158103170Y-84050432D01*
X158103170Y-84031634D01*
X158103433Y-83766881D01*
X158104705Y-83565979D01*
X158107750Y-83420128D01*
X158113335Y-83320528D01*
X158122224Y-83258380D01*
X158135182Y-83224883D01*
X158152975Y-83211238D01*
X158176368Y-83208646D01*
X158183650Y-83208762D01*
X158210315Y-83214894D01*
X158228630Y-83238467D01*
X158240163Y-83290631D01*
X158246485Y-83382538D01*
X158249165Y-83525340D01*
X158249771Y-83730187D01*
X158249975Y-83782306D01*
X158253964Y-83980785D01*
X158262264Y-84159727D01*
X158273845Y-84301248D01*
X158287674Y-84387464D01*
X158301670Y-84430948D01*
X158386300Y-84580692D01*
X158505927Y-84688542D01*
X158646676Y-84752307D01*
X158794673Y-84769793D01*
X158936043Y-84738810D01*
X159056913Y-84657164D01*
X159143408Y-84522664D01*
X159162246Y-84464423D01*
X159180689Y-84364491D01*
X159192689Y-84227334D01*
X159199194Y-84040989D01*
X159201152Y-83793496D01*
X159201152Y-83208646D01*
X159384149Y-83208646D01*
X159384149Y-83737536D01*
G37*
G36*
X157655553Y-84625958D02*
G01*
X157568146Y-84760987D01*
X157428857Y-84859459D01*
X157395076Y-84873793D01*
X157276518Y-84912208D01*
X157179775Y-84928015D01*
X157137473Y-84925982D01*
X156973343Y-84884710D01*
X156814171Y-84802598D01*
X156693832Y-84695832D01*
X156603405Y-84581124D01*
X156602999Y-84736672D01*
X156597768Y-84833461D01*
X156576213Y-84880681D01*
X156529394Y-84892219D01*
X156528851Y-84892219D01*
X156502810Y-84888920D01*
X156483870Y-84872463D01*
X156470905Y-84832842D01*
X156462787Y-84760050D01*
X156458390Y-84644080D01*
X156456587Y-84474925D01*
X156456252Y-84242579D01*
X156456257Y-84228756D01*
X156458289Y-83987784D01*
X156593441Y-83987784D01*
X156613741Y-84184467D01*
X156614455Y-84191133D01*
X156662462Y-84394538D01*
X156752620Y-84565845D01*
X156875157Y-84686291D01*
X156930491Y-84715363D01*
X157066059Y-84755005D01*
X157208007Y-84767412D01*
X157321516Y-84747788D01*
X157409404Y-84688149D01*
X157488654Y-84566036D01*
X157517579Y-84411536D01*
X157515653Y-84365824D01*
X157485543Y-84268740D01*
X157404972Y-84181784D01*
X157381138Y-84162161D01*
X157308902Y-84108268D01*
X157267725Y-84086241D01*
X157255290Y-84084984D01*
X157183458Y-84075365D01*
X157065168Y-84058398D01*
X156918262Y-84036617D01*
X156593441Y-83987784D01*
X156458289Y-83987784D01*
X156458507Y-83961872D01*
X156466658Y-83756550D01*
X156483334Y-83601726D01*
X156511158Y-83486338D01*
X156552751Y-83399321D01*
X156610738Y-83329612D01*
X156687741Y-83266146D01*
X156715431Y-83248467D01*
X156839168Y-83205624D01*
X156989041Y-83192045D01*
X157148584Y-83204340D01*
X157301335Y-83239120D01*
X157430827Y-83292997D01*
X157520596Y-83362581D01*
X157554178Y-83444484D01*
X157553253Y-83482442D01*
X157539442Y-83528748D01*
X157497641Y-83523705D01*
X157413430Y-83469922D01*
X157261778Y-83384934D01*
X157070700Y-83335282D01*
X156890909Y-83352061D01*
X156868029Y-83359550D01*
X156754886Y-83426111D01*
X156676262Y-83538889D01*
X156622690Y-83710535D01*
X156611840Y-83777189D01*
X156625746Y-83824018D01*
X156682331Y-83844777D01*
X156696613Y-83847537D01*
X156787164Y-83864539D01*
X156920039Y-83889088D01*
X157071900Y-83916865D01*
X157112111Y-83924536D01*
X157262391Y-83959121D01*
X157387903Y-83996625D01*
X157464834Y-84030179D01*
X157472675Y-84035416D01*
X157599637Y-84159102D01*
X157671982Y-84309259D01*
X157683687Y-84411536D01*
X157690392Y-84470130D01*
X157655553Y-84625958D01*
G37*
G36*
X161799711Y-88844957D02*
G01*
X160665129Y-88844957D01*
X160665129Y-88661960D01*
X161616714Y-88661960D01*
X161616714Y-87746974D01*
X161195821Y-87746974D01*
X161092920Y-87746809D01*
X160945419Y-87744739D01*
X160852253Y-87738554D01*
X160801039Y-87726101D01*
X160779391Y-87705226D01*
X160774928Y-87673775D01*
X160775879Y-87655880D01*
X160787782Y-87630227D01*
X160823344Y-87614024D01*
X160894949Y-87605118D01*
X161014980Y-87601353D01*
X161195821Y-87600576D01*
X161616714Y-87600576D01*
X161616714Y-86685591D01*
X160701729Y-86685591D01*
X160701729Y-86502594D01*
X161799711Y-86502594D01*
X161799711Y-88844957D01*
G37*
G36*
X159599988Y-87145901D02*
G01*
X159781374Y-87210752D01*
X159929798Y-87327865D01*
X160042939Y-87456726D01*
X160042939Y-87309055D01*
X160047203Y-87222781D01*
X160068410Y-87173541D01*
X160116138Y-87161383D01*
X160117773Y-87161388D01*
X160140795Y-87164412D01*
X160158264Y-87179036D01*
X160170947Y-87214060D01*
X160179608Y-87278284D01*
X160185012Y-87380507D01*
X160187925Y-87529529D01*
X160189111Y-87734150D01*
X160189337Y-88003170D01*
X160189111Y-88255763D01*
X160187911Y-88464770D01*
X160185006Y-88617529D01*
X160179666Y-88722821D01*
X160171161Y-88789428D01*
X160158760Y-88826132D01*
X160141735Y-88841714D01*
X160119353Y-88844957D01*
X160107497Y-88844372D01*
X160084179Y-88834559D01*
X160067500Y-88804363D01*
X160055952Y-88743224D01*
X160048026Y-88640577D01*
X160042214Y-88485862D01*
X160037005Y-88268516D01*
X160032811Y-88098681D01*
X160025695Y-87917501D01*
X160015600Y-87786934D01*
X160000927Y-87693869D01*
X159980074Y-87625196D01*
X159951441Y-87567803D01*
X159947210Y-87560688D01*
X159824210Y-87406334D01*
X159676237Y-87317773D01*
X159494212Y-87289481D01*
X159464430Y-87289976D01*
X159337949Y-87308094D01*
X159239062Y-87357348D01*
X159164804Y-87444638D01*
X159112210Y-87576864D01*
X159078313Y-87760929D01*
X159060150Y-88003731D01*
X159054755Y-88312172D01*
X159054725Y-88381264D01*
X159053774Y-88568928D01*
X159050346Y-88697726D01*
X159042927Y-88778692D01*
X159030000Y-88822863D01*
X159010048Y-88841273D01*
X158981556Y-88844957D01*
X158958342Y-88842775D01*
X158938049Y-88828796D01*
X158924147Y-88792763D01*
X158915432Y-88724445D01*
X158910698Y-88613616D01*
X158908741Y-88450046D01*
X158908357Y-88223507D01*
X158909189Y-88062361D01*
X158915986Y-87816035D01*
X158931537Y-87626838D01*
X158958119Y-87484473D01*
X158998010Y-87378641D01*
X159053484Y-87299046D01*
X159126819Y-87235390D01*
X159220736Y-87182472D01*
X159406241Y-87135683D01*
X159599988Y-87145901D01*
G37*
G36*
X146799346Y-83214619D02*
G01*
X146830547Y-83234606D01*
X146824764Y-83254468D01*
X146796292Y-83334730D01*
X146747306Y-83466953D01*
X146681457Y-83641419D01*
X146602396Y-83848406D01*
X146513771Y-84078194D01*
X146472199Y-84185282D01*
X146379826Y-84420495D01*
X146307817Y-84597770D01*
X146252431Y-84724815D01*
X146209929Y-84809340D01*
X146176569Y-84859052D01*
X146148610Y-84881659D01*
X146122312Y-84884870D01*
X146105503Y-84878683D01*
X146073446Y-84847950D01*
X146033641Y-84785383D01*
X145982512Y-84683636D01*
X145916480Y-84535363D01*
X145831968Y-84333219D01*
X145725399Y-84069858D01*
X145667009Y-83923683D01*
X145582121Y-83709335D01*
X145509507Y-83523734D01*
X145452954Y-83376661D01*
X145416247Y-83277896D01*
X145403170Y-83237221D01*
X145422353Y-83219159D01*
X145487837Y-83208646D01*
X145516687Y-83213435D01*
X145546849Y-83234782D01*
X145580156Y-83281416D01*
X145620977Y-83362040D01*
X145673678Y-83485357D01*
X145742628Y-83660071D01*
X145832193Y-83894885D01*
X145845915Y-83931159D01*
X145924714Y-84140094D01*
X145994105Y-84325091D01*
X146049941Y-84475028D01*
X146088078Y-84578781D01*
X146104371Y-84625228D01*
X146107705Y-84625367D01*
X146132036Y-84581729D01*
X146176027Y-84482063D01*
X146235872Y-84335578D01*
X146307767Y-84151484D01*
X146387905Y-83938989D01*
X146409962Y-83879621D01*
X146495886Y-83650634D01*
X146562193Y-83480184D01*
X146613033Y-83359775D01*
X146652558Y-83280913D01*
X146684919Y-83235101D01*
X146714266Y-83213843D01*
X146744750Y-83208646D01*
X146799346Y-83214619D01*
G37*
%TD*%
D11*
%TO.C,NT5*%
X166346592Y-110076010D03*
X169866192Y-108524010D03*
X156667692Y-110076010D03*
X154907892Y-110076010D03*
X155787792Y-110076010D03*
X161067192Y-110076010D03*
X168986292Y-108524010D03*
X149628492Y-108524010D03*
X159307392Y-108524010D03*
X150508392Y-108524010D03*
X161947092Y-108524010D03*
X154027992Y-110076010D03*
X153148092Y-110076010D03*
X170746092Y-110076010D03*
X147868692Y-108524010D03*
X142589292Y-110076010D03*
X146988792Y-108524010D03*
X168986292Y-110076010D03*
X157547592Y-110076010D03*
X150508392Y-110076010D03*
X161067192Y-108524010D03*
X155787792Y-108524010D03*
X164586792Y-110076010D03*
X151388292Y-108524010D03*
X159307392Y-110076010D03*
X161947092Y-110076010D03*
X148748592Y-110076010D03*
X160187292Y-108524010D03*
X167226492Y-110076010D03*
X170746092Y-108524010D03*
X156667692Y-108524010D03*
X152268192Y-108524010D03*
X144349092Y-110076010D03*
X148748592Y-108524010D03*
X169866192Y-110076010D03*
X145228992Y-110076010D03*
X168106392Y-110076010D03*
X141709392Y-110076010D03*
X165466692Y-110076010D03*
X146988792Y-110076010D03*
X167226492Y-108524010D03*
X152268192Y-110076010D03*
X157547592Y-108524010D03*
X143469192Y-110076010D03*
X146108892Y-110076010D03*
X141709392Y-108524010D03*
X154027992Y-108524010D03*
X144349092Y-108524010D03*
X168106392Y-108524010D03*
X158427492Y-108524010D03*
X147868692Y-110076010D03*
X158427492Y-110076010D03*
X164586792Y-108524010D03*
X160187292Y-110076010D03*
X153148092Y-108524010D03*
X165466692Y-108524010D03*
X166346592Y-108524010D03*
X163706892Y-108524010D03*
X162826992Y-110076010D03*
X154907892Y-108524010D03*
X143469192Y-108524010D03*
X163706892Y-110076010D03*
X149628492Y-110076010D03*
X145228992Y-108524010D03*
X151388292Y-110076010D03*
X146108892Y-108524010D03*
X142589292Y-108524010D03*
X162826992Y-108524010D03*
%TD*%
D12*
%TO.C,J6*%
X174400000Y-83110000D03*
X174400000Y-89080000D03*
%TD*%
%TO.C,J3*%
X138000000Y-77490000D03*
X138000000Y-71520000D03*
%TD*%
%TO.C,J4*%
X174404250Y-71510000D03*
X174404250Y-77480000D03*
%TD*%
%TO.C,J7*%
X138006757Y-100690000D03*
X138006757Y-94720000D03*
%TD*%
%TO.C,J1*%
X138000000Y-65890000D03*
X138000000Y-59920000D03*
%TD*%
%TO.C,J8*%
X174406757Y-94710000D03*
X174406757Y-100680000D03*
%TD*%
%TO.C,J2*%
X174400000Y-59910000D03*
X174400000Y-65880000D03*
%TD*%
%TO.C,J5*%
X138000000Y-89090000D03*
X138000000Y-83120000D03*
%TD*%
%TO.C,J10*%
X174400000Y-106310000D03*
X174400000Y-112280000D03*
%TD*%
%TO.C,J9*%
X138000000Y-112290000D03*
X138000000Y-106320000D03*
%TD*%
M02*
