%FSLAX45Y45*%
G04 Gerber Fmt 4.5, Leading zero omitted, Abs format (unit mm)*
G04 Created by KiCad (PCBNEW (6.0.2)) date 2022-07-21 21:07:06*
%MOMM*%
%LPD*%
G01*
G04 APERTURE LIST*
%TA.AperFunction,Profile*%
%ADD10C,0.100000*%
%TD*%
%ADD11C,0.200000*%
G04 APERTURE END LIST*
D10*
X13595024Y-11460000D02*
X17644976Y-11460000D01*
X17644976Y-11460000D02*
X17644976Y-5760000D01*
X17644976Y-5760000D02*
X13595024Y-5760000D01*
X13595024Y-5760000D02*
X13595024Y-11460000D01*
D11*
X13847643Y-11775476D02*
X13847643Y-11575476D01*
X13895262Y-11575476D01*
X13923833Y-11585000D01*
X13942881Y-11604048D01*
X13952405Y-11623095D01*
X13961929Y-11661190D01*
X13961929Y-11689762D01*
X13952405Y-11727857D01*
X13942881Y-11746905D01*
X13923833Y-11765952D01*
X13895262Y-11775476D01*
X13847643Y-11775476D01*
X14047643Y-11775476D02*
X14047643Y-11642143D01*
X14047643Y-11680238D02*
X14057167Y-11661190D01*
X14066691Y-11651667D01*
X14085738Y-11642143D01*
X14104786Y-11642143D01*
X14171452Y-11775476D02*
X14171452Y-11642143D01*
X14171452Y-11575476D02*
X14161929Y-11585000D01*
X14171452Y-11594524D01*
X14180976Y-11585000D01*
X14171452Y-11575476D01*
X14171452Y-11594524D01*
X14295262Y-11775476D02*
X14276214Y-11765952D01*
X14266691Y-11746905D01*
X14266691Y-11575476D01*
X14400024Y-11775476D02*
X14380976Y-11765952D01*
X14371452Y-11746905D01*
X14371452Y-11575476D01*
X14628595Y-11775476D02*
X14628595Y-11575476D01*
X14695262Y-11718333D01*
X14761929Y-11575476D01*
X14761929Y-11775476D01*
X14942881Y-11775476D02*
X14942881Y-11670714D01*
X14933357Y-11651667D01*
X14914310Y-11642143D01*
X14876214Y-11642143D01*
X14857167Y-11651667D01*
X14942881Y-11765952D02*
X14923833Y-11775476D01*
X14876214Y-11775476D01*
X14857167Y-11765952D01*
X14847643Y-11746905D01*
X14847643Y-11727857D01*
X14857167Y-11708809D01*
X14876214Y-11699286D01*
X14923833Y-11699286D01*
X14942881Y-11689762D01*
X15038119Y-11642143D02*
X15038119Y-11842143D01*
X15038119Y-11651667D02*
X15057167Y-11642143D01*
X15095262Y-11642143D01*
X15114310Y-11651667D01*
X15123833Y-11661190D01*
X15133357Y-11680238D01*
X15133357Y-11737381D01*
X15123833Y-11756428D01*
X15114310Y-11765952D01*
X15095262Y-11775476D01*
X15057167Y-11775476D01*
X15038119Y-11765952D01*
X15219072Y-11756428D02*
X15228595Y-11765952D01*
X15219072Y-11775476D01*
X15209548Y-11765952D01*
X15219072Y-11756428D01*
X15219072Y-11775476D01*
X15219072Y-11651667D02*
X15228595Y-11661190D01*
X15219072Y-11670714D01*
X15209548Y-11661190D01*
X15219072Y-11651667D01*
X15219072Y-11670714D01*
M02*
