%FSLAX45Y45*%
G04 Gerber Fmt 4.5, Leading zero omitted, Abs format (unit mm)*
G04 Created by KiCad (PCBNEW (6.0.2)) date 2022-07-21 21:07:06*
%MOMM*%
%LPD*%
G01*
G04 APERTURE LIST*
%TA.AperFunction,Profile*%
%ADD10C,0.100000*%
%TD*%
%ADD11C,0.200000*%
%ADD12C,0.025000*%
%ADD13C,0.040000*%
G04 APERTURE END LIST*
D10*
X13595024Y-11460000D02*
X17644976Y-11460000D01*
X17644976Y-11460000D02*
X17644976Y-5760000D01*
X17644976Y-5760000D02*
X13595024Y-5760000D01*
X13595024Y-5760000D02*
X13595024Y-11460000D01*
D11*
D12*
X14158439Y-10839901D02*
X14183439Y-10864901D01*
X14183439Y-10839901D02*
X14158439Y-10864901D01*
X14158439Y-10995101D02*
X14183439Y-11020101D01*
X14183439Y-10995101D02*
X14158439Y-11020101D01*
X14246429Y-10839901D02*
X14271429Y-10864901D01*
X14271429Y-10839901D02*
X14246429Y-10864901D01*
X14246429Y-10995101D02*
X14271429Y-11020101D01*
X14271429Y-10995101D02*
X14246429Y-11020101D01*
X14334419Y-10839901D02*
X14359419Y-10864901D01*
X14359419Y-10839901D02*
X14334419Y-10864901D01*
X14334419Y-10995101D02*
X14359419Y-11020101D01*
X14359419Y-10995101D02*
X14334419Y-11020101D01*
X14422409Y-10839901D02*
X14447409Y-10864901D01*
X14447409Y-10839901D02*
X14422409Y-10864901D01*
X14422409Y-10995101D02*
X14447409Y-11020101D01*
X14447409Y-10995101D02*
X14422409Y-11020101D01*
X14510399Y-10839901D02*
X14535399Y-10864901D01*
X14535399Y-10839901D02*
X14510399Y-10864901D01*
X14510399Y-10995101D02*
X14535399Y-11020101D01*
X14535399Y-10995101D02*
X14510399Y-11020101D01*
X14598389Y-10839901D02*
X14623389Y-10864901D01*
X14623389Y-10839901D02*
X14598389Y-10864901D01*
X14598389Y-10995101D02*
X14623389Y-11020101D01*
X14623389Y-10995101D02*
X14598389Y-11020101D01*
X14686379Y-10839901D02*
X14711379Y-10864901D01*
X14711379Y-10839901D02*
X14686379Y-10864901D01*
X14686379Y-10995101D02*
X14711379Y-11020101D01*
X14711379Y-10995101D02*
X14686379Y-11020101D01*
X14774369Y-10839901D02*
X14799369Y-10864901D01*
X14799369Y-10839901D02*
X14774369Y-10864901D01*
X14774369Y-10995101D02*
X14799369Y-11020101D01*
X14799369Y-10995101D02*
X14774369Y-11020101D01*
X14862359Y-10839901D02*
X14887359Y-10864901D01*
X14887359Y-10839901D02*
X14862359Y-10864901D01*
X14862359Y-10995101D02*
X14887359Y-11020101D01*
X14887359Y-10995101D02*
X14862359Y-11020101D01*
X14950349Y-10839901D02*
X14975349Y-10864901D01*
X14975349Y-10839901D02*
X14950349Y-10864901D01*
X14950349Y-10995101D02*
X14975349Y-11020101D01*
X14975349Y-10995101D02*
X14950349Y-11020101D01*
X15038339Y-10839901D02*
X15063339Y-10864901D01*
X15063339Y-10839901D02*
X15038339Y-10864901D01*
X15038339Y-10995101D02*
X15063339Y-11020101D01*
X15063339Y-10995101D02*
X15038339Y-11020101D01*
X15126329Y-10839901D02*
X15151329Y-10864901D01*
X15151329Y-10839901D02*
X15126329Y-10864901D01*
X15126329Y-10995101D02*
X15151329Y-11020101D01*
X15151329Y-10995101D02*
X15126329Y-11020101D01*
X15214319Y-10839901D02*
X15239319Y-10864901D01*
X15239319Y-10839901D02*
X15214319Y-10864901D01*
X15214319Y-10995101D02*
X15239319Y-11020101D01*
X15239319Y-10995101D02*
X15214319Y-11020101D01*
X15302309Y-10839901D02*
X15327309Y-10864901D01*
X15327309Y-10839901D02*
X15302309Y-10864901D01*
X15302309Y-10995101D02*
X15327309Y-11020101D01*
X15327309Y-10995101D02*
X15302309Y-11020101D01*
X15390299Y-10839901D02*
X15415299Y-10864901D01*
X15415299Y-10839901D02*
X15390299Y-10864901D01*
X15390299Y-10995101D02*
X15415299Y-11020101D01*
X15415299Y-10995101D02*
X15390299Y-11020101D01*
X15478289Y-10839901D02*
X15503289Y-10864901D01*
X15503289Y-10839901D02*
X15478289Y-10864901D01*
X15478289Y-10995101D02*
X15503289Y-11020101D01*
X15503289Y-10995101D02*
X15478289Y-11020101D01*
X15566279Y-10839901D02*
X15591279Y-10864901D01*
X15591279Y-10839901D02*
X15566279Y-10864901D01*
X15566279Y-10995101D02*
X15591279Y-11020101D01*
X15591279Y-10995101D02*
X15566279Y-11020101D01*
X15654269Y-10839901D02*
X15679269Y-10864901D01*
X15679269Y-10839901D02*
X15654269Y-10864901D01*
X15654269Y-10995101D02*
X15679269Y-11020101D01*
X15679269Y-10995101D02*
X15654269Y-11020101D01*
X15742259Y-10839901D02*
X15767259Y-10864901D01*
X15767259Y-10839901D02*
X15742259Y-10864901D01*
X15742259Y-10995101D02*
X15767259Y-11020101D01*
X15767259Y-10995101D02*
X15742259Y-11020101D01*
X15830249Y-10839901D02*
X15855249Y-10864901D01*
X15855249Y-10839901D02*
X15830249Y-10864901D01*
X15830249Y-10995101D02*
X15855249Y-11020101D01*
X15855249Y-10995101D02*
X15830249Y-11020101D01*
X15918239Y-10839901D02*
X15943239Y-10864901D01*
X15943239Y-10839901D02*
X15918239Y-10864901D01*
X15918239Y-10995101D02*
X15943239Y-11020101D01*
X15943239Y-10995101D02*
X15918239Y-11020101D01*
X16006229Y-10839901D02*
X16031229Y-10864901D01*
X16031229Y-10839901D02*
X16006229Y-10864901D01*
X16006229Y-10995101D02*
X16031229Y-11020101D01*
X16031229Y-10995101D02*
X16006229Y-11020101D01*
X16094219Y-10839901D02*
X16119219Y-10864901D01*
X16119219Y-10839901D02*
X16094219Y-10864901D01*
X16094219Y-10995101D02*
X16119219Y-11020101D01*
X16119219Y-10995101D02*
X16094219Y-11020101D01*
X16182209Y-10839901D02*
X16207209Y-10864901D01*
X16207209Y-10839901D02*
X16182209Y-10864901D01*
X16182209Y-10995101D02*
X16207209Y-11020101D01*
X16207209Y-10995101D02*
X16182209Y-11020101D01*
X16270199Y-10839901D02*
X16295199Y-10864901D01*
X16295199Y-10839901D02*
X16270199Y-10864901D01*
X16270199Y-10995101D02*
X16295199Y-11020101D01*
X16295199Y-10995101D02*
X16270199Y-11020101D01*
X16358189Y-10839901D02*
X16383189Y-10864901D01*
X16383189Y-10839901D02*
X16358189Y-10864901D01*
X16358189Y-10995101D02*
X16383189Y-11020101D01*
X16383189Y-10995101D02*
X16358189Y-11020101D01*
X16446179Y-10839901D02*
X16471179Y-10864901D01*
X16471179Y-10839901D02*
X16446179Y-10864901D01*
X16446179Y-10995101D02*
X16471179Y-11020101D01*
X16471179Y-10995101D02*
X16446179Y-11020101D01*
X16534169Y-10839901D02*
X16559169Y-10864901D01*
X16559169Y-10839901D02*
X16534169Y-10864901D01*
X16534169Y-10995101D02*
X16559169Y-11020101D01*
X16559169Y-10995101D02*
X16534169Y-11020101D01*
X16622159Y-10839901D02*
X16647159Y-10864901D01*
X16647159Y-10839901D02*
X16622159Y-10864901D01*
X16622159Y-10995101D02*
X16647159Y-11020101D01*
X16647159Y-10995101D02*
X16622159Y-11020101D01*
X16710149Y-10839901D02*
X16735149Y-10864901D01*
X16735149Y-10839901D02*
X16710149Y-10864901D01*
X16710149Y-10995101D02*
X16735149Y-11020101D01*
X16735149Y-10995101D02*
X16710149Y-11020101D01*
X16798139Y-10839901D02*
X16823139Y-10864901D01*
X16823139Y-10839901D02*
X16798139Y-10864901D01*
X16798139Y-10995101D02*
X16823139Y-11020101D01*
X16823139Y-10995101D02*
X16798139Y-11020101D01*
X16886129Y-10839901D02*
X16911129Y-10864901D01*
X16911129Y-10839901D02*
X16886129Y-10864901D01*
X16886129Y-10995101D02*
X16911129Y-11020101D01*
X16911129Y-10995101D02*
X16886129Y-11020101D01*
X16974119Y-10839901D02*
X16999119Y-10864901D01*
X16999119Y-10839901D02*
X16974119Y-10864901D01*
X16974119Y-10995101D02*
X16999119Y-11020101D01*
X16999119Y-10995101D02*
X16974119Y-11020101D01*
X17062109Y-10839901D02*
X17087109Y-10864901D01*
X17087109Y-10839901D02*
X17062109Y-10864901D01*
X17062109Y-10995101D02*
X17087109Y-11020101D01*
X17087109Y-10995101D02*
X17062109Y-11020101D01*
D13*
X13763200Y-6870000D02*
G75*
G03*
X13763200Y-6870000I-20000J0D01*
G01*
X13763200Y-8030000D02*
G75*
G03*
X13763200Y-8030000I-20000J0D01*
G01*
X13763200Y-9190000D02*
G75*
G03*
X13763200Y-9190000I-20000J0D01*
G01*
X13763200Y-10350000D02*
G75*
G03*
X13763200Y-10350000I-20000J0D01*
G01*
X13926400Y-6870000D02*
G75*
G03*
X13926400Y-6870000I-20000J0D01*
G01*
X13926400Y-8030000D02*
G75*
G03*
X13926400Y-8030000I-20000J0D01*
G01*
X13926400Y-9190000D02*
G75*
G03*
X13926400Y-9190000I-20000J0D01*
G01*
X13926400Y-10350000D02*
G75*
G03*
X13926400Y-10350000I-20000J0D01*
G01*
X14089600Y-6870000D02*
G75*
G03*
X14089600Y-6870000I-20000J0D01*
G01*
X14089600Y-8030000D02*
G75*
G03*
X14089600Y-8030000I-20000J0D01*
G01*
X14089600Y-9190000D02*
G75*
G03*
X14089600Y-9190000I-20000J0D01*
G01*
X14089600Y-10350000D02*
G75*
G03*
X14089600Y-10350000I-20000J0D01*
G01*
X14252800Y-6870000D02*
G75*
G03*
X14252800Y-6870000I-20000J0D01*
G01*
X14252800Y-8030000D02*
G75*
G03*
X14252800Y-8030000I-20000J0D01*
G01*
X14252800Y-9190000D02*
G75*
G03*
X14252800Y-9190000I-20000J0D01*
G01*
X14252800Y-10350000D02*
G75*
G03*
X14252800Y-10350000I-20000J0D01*
G01*
X14416000Y-6870000D02*
G75*
G03*
X14416000Y-6870000I-20000J0D01*
G01*
X14416000Y-8030000D02*
G75*
G03*
X14416000Y-8030000I-20000J0D01*
G01*
X14416000Y-9190000D02*
G75*
G03*
X14416000Y-9190000I-20000J0D01*
G01*
X14416000Y-10350000D02*
G75*
G03*
X14416000Y-10350000I-20000J0D01*
G01*
X14579200Y-6870000D02*
G75*
G03*
X14579200Y-6870000I-20000J0D01*
G01*
X14579200Y-8030000D02*
G75*
G03*
X14579200Y-8030000I-20000J0D01*
G01*
X14579200Y-9190000D02*
G75*
G03*
X14579200Y-9190000I-20000J0D01*
G01*
X14579200Y-10350000D02*
G75*
G03*
X14579200Y-10350000I-20000J0D01*
G01*
X14742400Y-6870000D02*
G75*
G03*
X14742400Y-6870000I-20000J0D01*
G01*
X14742400Y-8030000D02*
G75*
G03*
X14742400Y-8030000I-20000J0D01*
G01*
X14742400Y-9190000D02*
G75*
G03*
X14742400Y-9190000I-20000J0D01*
G01*
X14742400Y-10350000D02*
G75*
G03*
X14742400Y-10350000I-20000J0D01*
G01*
X14905600Y-6870000D02*
G75*
G03*
X14905600Y-6870000I-20000J0D01*
G01*
X14905600Y-8030000D02*
G75*
G03*
X14905600Y-8030000I-20000J0D01*
G01*
X14905600Y-9190000D02*
G75*
G03*
X14905600Y-9190000I-20000J0D01*
G01*
X14905600Y-10350000D02*
G75*
G03*
X14905600Y-10350000I-20000J0D01*
G01*
X15068800Y-6870000D02*
G75*
G03*
X15068800Y-6870000I-20000J0D01*
G01*
X15068800Y-8030000D02*
G75*
G03*
X15068800Y-8030000I-20000J0D01*
G01*
X15068800Y-9190000D02*
G75*
G03*
X15068800Y-9190000I-20000J0D01*
G01*
X15068800Y-10350000D02*
G75*
G03*
X15068800Y-10350000I-20000J0D01*
G01*
X15232000Y-6870000D02*
G75*
G03*
X15232000Y-6870000I-20000J0D01*
G01*
X15232000Y-8030000D02*
G75*
G03*
X15232000Y-8030000I-20000J0D01*
G01*
X15232000Y-9190000D02*
G75*
G03*
X15232000Y-9190000I-20000J0D01*
G01*
X15232000Y-10350000D02*
G75*
G03*
X15232000Y-10350000I-20000J0D01*
G01*
X15395200Y-6870000D02*
G75*
G03*
X15395200Y-6870000I-20000J0D01*
G01*
X15395200Y-8030000D02*
G75*
G03*
X15395200Y-8030000I-20000J0D01*
G01*
X15395200Y-9190000D02*
G75*
G03*
X15395200Y-9190000I-20000J0D01*
G01*
X15395200Y-10350000D02*
G75*
G03*
X15395200Y-10350000I-20000J0D01*
G01*
X15558400Y-6870000D02*
G75*
G03*
X15558400Y-6870000I-20000J0D01*
G01*
X15558400Y-8030000D02*
G75*
G03*
X15558400Y-8030000I-20000J0D01*
G01*
X15558400Y-9190000D02*
G75*
G03*
X15558400Y-9190000I-20000J0D01*
G01*
X15558400Y-10350000D02*
G75*
G03*
X15558400Y-10350000I-20000J0D01*
G01*
X15721600Y-6870000D02*
G75*
G03*
X15721600Y-6870000I-20000J0D01*
G01*
X15721600Y-8030000D02*
G75*
G03*
X15721600Y-8030000I-20000J0D01*
G01*
X15721600Y-9190000D02*
G75*
G03*
X15721600Y-9190000I-20000J0D01*
G01*
X15721600Y-10350000D02*
G75*
G03*
X15721600Y-10350000I-20000J0D01*
G01*
X15884800Y-6870000D02*
G75*
G03*
X15884800Y-6870000I-20000J0D01*
G01*
X15884800Y-8030000D02*
G75*
G03*
X15884800Y-8030000I-20000J0D01*
G01*
X15884800Y-9190000D02*
G75*
G03*
X15884800Y-9190000I-20000J0D01*
G01*
X15884800Y-10350000D02*
G75*
G03*
X15884800Y-10350000I-20000J0D01*
G01*
X16048000Y-6870000D02*
G75*
G03*
X16048000Y-6870000I-20000J0D01*
G01*
X16048000Y-8030000D02*
G75*
G03*
X16048000Y-8030000I-20000J0D01*
G01*
X16048000Y-9190000D02*
G75*
G03*
X16048000Y-9190000I-20000J0D01*
G01*
X16048000Y-10350000D02*
G75*
G03*
X16048000Y-10350000I-20000J0D01*
G01*
X16211200Y-6870000D02*
G75*
G03*
X16211200Y-6870000I-20000J0D01*
G01*
X16211200Y-8030000D02*
G75*
G03*
X16211200Y-8030000I-20000J0D01*
G01*
X16211200Y-9190000D02*
G75*
G03*
X16211200Y-9190000I-20000J0D01*
G01*
X16211200Y-10350000D02*
G75*
G03*
X16211200Y-10350000I-20000J0D01*
G01*
X16374400Y-6870000D02*
G75*
G03*
X16374400Y-6870000I-20000J0D01*
G01*
X16374400Y-8030000D02*
G75*
G03*
X16374400Y-8030000I-20000J0D01*
G01*
X16374400Y-9190000D02*
G75*
G03*
X16374400Y-9190000I-20000J0D01*
G01*
X16374400Y-10350000D02*
G75*
G03*
X16374400Y-10350000I-20000J0D01*
G01*
X16537600Y-6870000D02*
G75*
G03*
X16537600Y-6870000I-20000J0D01*
G01*
X16537600Y-8030000D02*
G75*
G03*
X16537600Y-8030000I-20000J0D01*
G01*
X16537600Y-9190000D02*
G75*
G03*
X16537600Y-9190000I-20000J0D01*
G01*
X16537600Y-10350000D02*
G75*
G03*
X16537600Y-10350000I-20000J0D01*
G01*
X16700800Y-6870000D02*
G75*
G03*
X16700800Y-6870000I-20000J0D01*
G01*
X16700800Y-8030000D02*
G75*
G03*
X16700800Y-8030000I-20000J0D01*
G01*
X16700800Y-9190000D02*
G75*
G03*
X16700800Y-9190000I-20000J0D01*
G01*
X16700800Y-10350000D02*
G75*
G03*
X16700800Y-10350000I-20000J0D01*
G01*
X16864000Y-6870000D02*
G75*
G03*
X16864000Y-6870000I-20000J0D01*
G01*
X16864000Y-8030000D02*
G75*
G03*
X16864000Y-8030000I-20000J0D01*
G01*
X16864000Y-9190000D02*
G75*
G03*
X16864000Y-9190000I-20000J0D01*
G01*
X16864000Y-10350000D02*
G75*
G03*
X16864000Y-10350000I-20000J0D01*
G01*
X17027200Y-6870000D02*
G75*
G03*
X17027200Y-6870000I-20000J0D01*
G01*
X17027200Y-8030000D02*
G75*
G03*
X17027200Y-8030000I-20000J0D01*
G01*
X17027200Y-9190000D02*
G75*
G03*
X17027200Y-9190000I-20000J0D01*
G01*
X17027200Y-10350000D02*
G75*
G03*
X17027200Y-10350000I-20000J0D01*
G01*
X17190400Y-6870000D02*
G75*
G03*
X17190400Y-6870000I-20000J0D01*
G01*
X17190400Y-8030000D02*
G75*
G03*
X17190400Y-8030000I-20000J0D01*
G01*
X17190400Y-9190000D02*
G75*
G03*
X17190400Y-9190000I-20000J0D01*
G01*
X17190400Y-10350000D02*
G75*
G03*
X17190400Y-10350000I-20000J0D01*
G01*
X17353600Y-6870000D02*
G75*
G03*
X17353600Y-6870000I-20000J0D01*
G01*
X17353600Y-8030000D02*
G75*
G03*
X17353600Y-8030000I-20000J0D01*
G01*
X17353600Y-9190000D02*
G75*
G03*
X17353600Y-9190000I-20000J0D01*
G01*
X17353600Y-10350000D02*
G75*
G03*
X17353600Y-10350000I-20000J0D01*
G01*
X17516800Y-6870000D02*
G75*
G03*
X17516800Y-6870000I-20000J0D01*
G01*
X17516800Y-8030000D02*
G75*
G03*
X17516800Y-8030000I-20000J0D01*
G01*
X17516800Y-9190000D02*
G75*
G03*
X17516800Y-9190000I-20000J0D01*
G01*
X17516800Y-10350000D02*
G75*
G03*
X17516800Y-10350000I-20000J0D01*
G01*
D11*
X13847643Y-11775476D02*
X13847643Y-11575476D01*
X13895262Y-11575476D01*
X13923833Y-11585000D01*
X13942881Y-11604048D01*
X13952405Y-11623095D01*
X13961929Y-11661190D01*
X13961929Y-11689762D01*
X13952405Y-11727857D01*
X13942881Y-11746905D01*
X13923833Y-11765952D01*
X13895262Y-11775476D01*
X13847643Y-11775476D01*
X14047643Y-11775476D02*
X14047643Y-11642143D01*
X14047643Y-11680238D02*
X14057167Y-11661190D01*
X14066691Y-11651667D01*
X14085738Y-11642143D01*
X14104786Y-11642143D01*
X14171452Y-11775476D02*
X14171452Y-11642143D01*
X14171452Y-11575476D02*
X14161929Y-11585000D01*
X14171452Y-11594524D01*
X14180976Y-11585000D01*
X14171452Y-11575476D01*
X14171452Y-11594524D01*
X14295262Y-11775476D02*
X14276214Y-11765952D01*
X14266691Y-11746905D01*
X14266691Y-11575476D01*
X14400024Y-11775476D02*
X14380976Y-11765952D01*
X14371452Y-11746905D01*
X14371452Y-11575476D01*
X14628595Y-11775476D02*
X14628595Y-11575476D01*
X14695262Y-11718333D01*
X14761929Y-11575476D01*
X14761929Y-11775476D01*
X14942881Y-11775476D02*
X14942881Y-11670714D01*
X14933357Y-11651667D01*
X14914310Y-11642143D01*
X14876214Y-11642143D01*
X14857167Y-11651667D01*
X14942881Y-11765952D02*
X14923833Y-11775476D01*
X14876214Y-11775476D01*
X14857167Y-11765952D01*
X14847643Y-11746905D01*
X14847643Y-11727857D01*
X14857167Y-11708809D01*
X14876214Y-11699286D01*
X14923833Y-11699286D01*
X14942881Y-11689762D01*
X15038119Y-11642143D02*
X15038119Y-11842143D01*
X15038119Y-11651667D02*
X15057167Y-11642143D01*
X15095262Y-11642143D01*
X15114310Y-11651667D01*
X15123833Y-11661190D01*
X15133357Y-11680238D01*
X15133357Y-11737381D01*
X15123833Y-11756428D01*
X15114310Y-11765952D01*
X15095262Y-11775476D01*
X15057167Y-11775476D01*
X15038119Y-11765952D01*
X15219072Y-11756428D02*
X15228595Y-11765952D01*
X15219072Y-11775476D01*
X15209548Y-11765952D01*
X15219072Y-11756428D01*
X15219072Y-11775476D01*
X15219072Y-11651667D02*
X15228595Y-11661190D01*
X15219072Y-11670714D01*
X15209548Y-11661190D01*
X15219072Y-11651667D01*
X15219072Y-11670714D01*
D12*
X13565024Y-12092500D02*
X13590024Y-12117500D01*
X13590024Y-12092500D02*
X13565024Y-12117500D01*
D11*
X13885738Y-11995476D02*
X13904786Y-11995476D01*
X13923833Y-12005000D01*
X13933357Y-12014524D01*
X13942881Y-12033571D01*
X13952405Y-12071667D01*
X13952405Y-12119286D01*
X13942881Y-12157381D01*
X13933357Y-12176428D01*
X13923833Y-12185952D01*
X13904786Y-12195476D01*
X13885738Y-12195476D01*
X13866691Y-12185952D01*
X13857167Y-12176428D01*
X13847643Y-12157381D01*
X13838119Y-12119286D01*
X13838119Y-12071667D01*
X13847643Y-12033571D01*
X13857167Y-12014524D01*
X13866691Y-12005000D01*
X13885738Y-11995476D01*
X14038119Y-12176428D02*
X14047643Y-12185952D01*
X14038119Y-12195476D01*
X14028595Y-12185952D01*
X14038119Y-12176428D01*
X14038119Y-12195476D01*
X14123833Y-12014524D02*
X14133357Y-12005000D01*
X14152405Y-11995476D01*
X14200024Y-11995476D01*
X14219072Y-12005000D01*
X14228595Y-12014524D01*
X14238119Y-12033571D01*
X14238119Y-12052619D01*
X14228595Y-12081190D01*
X14114310Y-12195476D01*
X14238119Y-12195476D01*
X14419072Y-11995476D02*
X14323833Y-11995476D01*
X14314310Y-12090714D01*
X14323833Y-12081190D01*
X14342881Y-12071667D01*
X14390500Y-12071667D01*
X14409548Y-12081190D01*
X14419072Y-12090714D01*
X14428595Y-12109762D01*
X14428595Y-12157381D01*
X14419072Y-12176428D01*
X14409548Y-12185952D01*
X14390500Y-12195476D01*
X14342881Y-12195476D01*
X14323833Y-12185952D01*
X14314310Y-12176428D01*
X14552405Y-11995476D02*
X14571452Y-11995476D01*
X14590500Y-12005000D01*
X14600024Y-12014524D01*
X14609548Y-12033571D01*
X14619072Y-12071667D01*
X14619072Y-12119286D01*
X14609548Y-12157381D01*
X14600024Y-12176428D01*
X14590500Y-12185952D01*
X14571452Y-12195476D01*
X14552405Y-12195476D01*
X14533357Y-12185952D01*
X14523833Y-12176428D01*
X14514310Y-12157381D01*
X14504786Y-12119286D01*
X14504786Y-12071667D01*
X14514310Y-12033571D01*
X14523833Y-12014524D01*
X14533357Y-12005000D01*
X14552405Y-11995476D01*
X14704786Y-12195476D02*
X14704786Y-12062143D01*
X14704786Y-12081190D02*
X14714310Y-12071667D01*
X14733357Y-12062143D01*
X14761929Y-12062143D01*
X14780976Y-12071667D01*
X14790500Y-12090714D01*
X14790500Y-12195476D01*
X14790500Y-12090714D02*
X14800024Y-12071667D01*
X14819072Y-12062143D01*
X14847643Y-12062143D01*
X14866691Y-12071667D01*
X14876214Y-12090714D01*
X14876214Y-12195476D01*
X14971452Y-12195476D02*
X14971452Y-12062143D01*
X14971452Y-12081190D02*
X14980976Y-12071667D01*
X15000024Y-12062143D01*
X15028595Y-12062143D01*
X15047643Y-12071667D01*
X15057167Y-12090714D01*
X15057167Y-12195476D01*
X15057167Y-12090714D02*
X15066691Y-12071667D01*
X15085738Y-12062143D01*
X15114310Y-12062143D01*
X15133357Y-12071667D01*
X15142881Y-12090714D01*
X15142881Y-12195476D01*
X15533357Y-11985952D02*
X15361929Y-12243095D01*
X15790500Y-11995476D02*
X15809548Y-11995476D01*
X15828595Y-12005000D01*
X15838119Y-12014524D01*
X15847643Y-12033571D01*
X15857167Y-12071667D01*
X15857167Y-12119286D01*
X15847643Y-12157381D01*
X15838119Y-12176428D01*
X15828595Y-12185952D01*
X15809548Y-12195476D01*
X15790500Y-12195476D01*
X15771452Y-12185952D01*
X15761929Y-12176428D01*
X15752405Y-12157381D01*
X15742881Y-12119286D01*
X15742881Y-12071667D01*
X15752405Y-12033571D01*
X15761929Y-12014524D01*
X15771452Y-12005000D01*
X15790500Y-11995476D01*
X15942881Y-12176428D02*
X15952405Y-12185952D01*
X15942881Y-12195476D01*
X15933357Y-12185952D01*
X15942881Y-12176428D01*
X15942881Y-12195476D01*
X16076214Y-11995476D02*
X16095262Y-11995476D01*
X16114310Y-12005000D01*
X16123833Y-12014524D01*
X16133357Y-12033571D01*
X16142881Y-12071667D01*
X16142881Y-12119286D01*
X16133357Y-12157381D01*
X16123833Y-12176428D01*
X16114310Y-12185952D01*
X16095262Y-12195476D01*
X16076214Y-12195476D01*
X16057167Y-12185952D01*
X16047643Y-12176428D01*
X16038119Y-12157381D01*
X16028595Y-12119286D01*
X16028595Y-12071667D01*
X16038119Y-12033571D01*
X16047643Y-12014524D01*
X16057167Y-12005000D01*
X16076214Y-11995476D01*
X16266691Y-11995476D02*
X16285738Y-11995476D01*
X16304786Y-12005000D01*
X16314310Y-12014524D01*
X16323833Y-12033571D01*
X16333357Y-12071667D01*
X16333357Y-12119286D01*
X16323833Y-12157381D01*
X16314310Y-12176428D01*
X16304786Y-12185952D01*
X16285738Y-12195476D01*
X16266691Y-12195476D01*
X16247643Y-12185952D01*
X16238119Y-12176428D01*
X16228595Y-12157381D01*
X16219072Y-12119286D01*
X16219072Y-12071667D01*
X16228595Y-12033571D01*
X16238119Y-12014524D01*
X16247643Y-12005000D01*
X16266691Y-11995476D01*
X16428595Y-12195476D02*
X16466691Y-12195476D01*
X16485738Y-12185952D01*
X16495262Y-12176428D01*
X16514310Y-12147857D01*
X16523833Y-12109762D01*
X16523833Y-12033571D01*
X16514310Y-12014524D01*
X16504786Y-12005000D01*
X16485738Y-11995476D01*
X16447643Y-11995476D01*
X16428595Y-12005000D01*
X16419072Y-12014524D01*
X16409548Y-12033571D01*
X16409548Y-12081190D01*
X16419072Y-12100238D01*
X16428595Y-12109762D01*
X16447643Y-12119286D01*
X16485738Y-12119286D01*
X16504786Y-12109762D01*
X16514310Y-12100238D01*
X16523833Y-12081190D01*
X16638119Y-12081190D02*
X16619072Y-12071667D01*
X16609548Y-12062143D01*
X16600024Y-12043095D01*
X16600024Y-12033571D01*
X16609548Y-12014524D01*
X16619072Y-12005000D01*
X16638119Y-11995476D01*
X16676214Y-11995476D01*
X16695262Y-12005000D01*
X16704786Y-12014524D01*
X16714310Y-12033571D01*
X16714310Y-12043095D01*
X16704786Y-12062143D01*
X16695262Y-12071667D01*
X16676214Y-12081190D01*
X16638119Y-12081190D01*
X16619072Y-12090714D01*
X16609548Y-12100238D01*
X16600024Y-12119286D01*
X16600024Y-12157381D01*
X16609548Y-12176428D01*
X16619072Y-12185952D01*
X16638119Y-12195476D01*
X16676214Y-12195476D01*
X16695262Y-12185952D01*
X16704786Y-12176428D01*
X16714310Y-12157381D01*
X16714310Y-12119286D01*
X16704786Y-12100238D01*
X16695262Y-12090714D01*
X16676214Y-12081190D01*
X16790500Y-11995476D02*
X16790500Y-12033571D01*
X16866691Y-11995476D02*
X16866691Y-12033571D01*
X17161929Y-12271667D02*
X17152405Y-12262143D01*
X17133357Y-12233571D01*
X17123834Y-12214524D01*
X17114310Y-12185952D01*
X17104786Y-12138333D01*
X17104786Y-12100238D01*
X17114310Y-12052619D01*
X17123834Y-12024048D01*
X17133357Y-12005000D01*
X17152405Y-11976428D01*
X17161929Y-11966905D01*
X17323834Y-11995476D02*
X17285738Y-11995476D01*
X17266691Y-12005000D01*
X17257167Y-12014524D01*
X17238119Y-12043095D01*
X17228595Y-12081190D01*
X17228595Y-12157381D01*
X17238119Y-12176428D01*
X17247643Y-12185952D01*
X17266691Y-12195476D01*
X17304786Y-12195476D01*
X17323834Y-12185952D01*
X17333357Y-12176428D01*
X17342881Y-12157381D01*
X17342881Y-12109762D01*
X17333357Y-12090714D01*
X17323834Y-12081190D01*
X17304786Y-12071667D01*
X17266691Y-12071667D01*
X17247643Y-12081190D01*
X17238119Y-12090714D01*
X17228595Y-12109762D01*
X17457167Y-12081190D02*
X17438119Y-12071667D01*
X17428595Y-12062143D01*
X17419072Y-12043095D01*
X17419072Y-12033571D01*
X17428595Y-12014524D01*
X17438119Y-12005000D01*
X17457167Y-11995476D01*
X17495262Y-11995476D01*
X17514310Y-12005000D01*
X17523834Y-12014524D01*
X17533357Y-12033571D01*
X17533357Y-12043095D01*
X17523834Y-12062143D01*
X17514310Y-12071667D01*
X17495262Y-12081190D01*
X17457167Y-12081190D01*
X17438119Y-12090714D01*
X17428595Y-12100238D01*
X17419072Y-12119286D01*
X17419072Y-12157381D01*
X17428595Y-12176428D01*
X17438119Y-12185952D01*
X17457167Y-12195476D01*
X17495262Y-12195476D01*
X17514310Y-12185952D01*
X17523834Y-12176428D01*
X17533357Y-12157381D01*
X17533357Y-12119286D01*
X17523834Y-12100238D01*
X17514310Y-12090714D01*
X17495262Y-12081190D01*
X17771453Y-12195476D02*
X17771453Y-11995476D01*
X17857167Y-12195476D02*
X17857167Y-12090714D01*
X17847643Y-12071667D01*
X17828595Y-12062143D01*
X17800024Y-12062143D01*
X17780976Y-12071667D01*
X17771453Y-12081190D01*
X17980976Y-12195476D02*
X17961929Y-12185952D01*
X17952405Y-12176428D01*
X17942881Y-12157381D01*
X17942881Y-12100238D01*
X17952405Y-12081190D01*
X17961929Y-12071667D01*
X17980976Y-12062143D01*
X18009548Y-12062143D01*
X18028595Y-12071667D01*
X18038119Y-12081190D01*
X18047643Y-12100238D01*
X18047643Y-12157381D01*
X18038119Y-12176428D01*
X18028595Y-12185952D01*
X18009548Y-12195476D01*
X17980976Y-12195476D01*
X18161929Y-12195476D02*
X18142881Y-12185952D01*
X18133357Y-12166905D01*
X18133357Y-11995476D01*
X18314310Y-12185952D02*
X18295262Y-12195476D01*
X18257167Y-12195476D01*
X18238119Y-12185952D01*
X18228595Y-12166905D01*
X18228595Y-12090714D01*
X18238119Y-12071667D01*
X18257167Y-12062143D01*
X18295262Y-12062143D01*
X18314310Y-12071667D01*
X18323834Y-12090714D01*
X18323834Y-12109762D01*
X18228595Y-12128809D01*
X18400024Y-12185952D02*
X18419072Y-12195476D01*
X18457167Y-12195476D01*
X18476214Y-12185952D01*
X18485738Y-12166905D01*
X18485738Y-12157381D01*
X18476214Y-12138333D01*
X18457167Y-12128809D01*
X18428595Y-12128809D01*
X18409548Y-12119286D01*
X18400024Y-12100238D01*
X18400024Y-12090714D01*
X18409548Y-12071667D01*
X18428595Y-12062143D01*
X18457167Y-12062143D01*
X18476214Y-12071667D01*
X18552405Y-12271667D02*
X18561929Y-12262143D01*
X18580976Y-12233571D01*
X18590500Y-12214524D01*
X18600024Y-12185952D01*
X18609548Y-12138333D01*
X18609548Y-12100238D01*
X18600024Y-12052619D01*
X18590500Y-12024048D01*
X18580976Y-12005000D01*
X18561929Y-11976428D01*
X18552405Y-11966905D01*
D13*
X13590024Y-12369000D02*
G75*
G03*
X13590024Y-12369000I-20000J0D01*
G01*
D11*
X13885738Y-12259476D02*
X13904786Y-12259476D01*
X13923833Y-12269000D01*
X13933357Y-12278524D01*
X13942881Y-12297571D01*
X13952405Y-12335667D01*
X13952405Y-12383286D01*
X13942881Y-12421381D01*
X13933357Y-12440428D01*
X13923833Y-12449952D01*
X13904786Y-12459476D01*
X13885738Y-12459476D01*
X13866691Y-12449952D01*
X13857167Y-12440428D01*
X13847643Y-12421381D01*
X13838119Y-12383286D01*
X13838119Y-12335667D01*
X13847643Y-12297571D01*
X13857167Y-12278524D01*
X13866691Y-12269000D01*
X13885738Y-12259476D01*
X14038119Y-12440428D02*
X14047643Y-12449952D01*
X14038119Y-12459476D01*
X14028595Y-12449952D01*
X14038119Y-12440428D01*
X14038119Y-12459476D01*
X14219072Y-12326143D02*
X14219072Y-12459476D01*
X14171452Y-12249952D02*
X14123833Y-12392809D01*
X14247643Y-12392809D01*
X14361929Y-12259476D02*
X14380976Y-12259476D01*
X14400024Y-12269000D01*
X14409548Y-12278524D01*
X14419072Y-12297571D01*
X14428595Y-12335667D01*
X14428595Y-12383286D01*
X14419072Y-12421381D01*
X14409548Y-12440428D01*
X14400024Y-12449952D01*
X14380976Y-12459476D01*
X14361929Y-12459476D01*
X14342881Y-12449952D01*
X14333357Y-12440428D01*
X14323833Y-12421381D01*
X14314310Y-12383286D01*
X14314310Y-12335667D01*
X14323833Y-12297571D01*
X14333357Y-12278524D01*
X14342881Y-12269000D01*
X14361929Y-12259476D01*
X14552405Y-12259476D02*
X14571452Y-12259476D01*
X14590500Y-12269000D01*
X14600024Y-12278524D01*
X14609548Y-12297571D01*
X14619072Y-12335667D01*
X14619072Y-12383286D01*
X14609548Y-12421381D01*
X14600024Y-12440428D01*
X14590500Y-12449952D01*
X14571452Y-12459476D01*
X14552405Y-12459476D01*
X14533357Y-12449952D01*
X14523833Y-12440428D01*
X14514310Y-12421381D01*
X14504786Y-12383286D01*
X14504786Y-12335667D01*
X14514310Y-12297571D01*
X14523833Y-12278524D01*
X14533357Y-12269000D01*
X14552405Y-12259476D01*
X14704786Y-12459476D02*
X14704786Y-12326143D01*
X14704786Y-12345190D02*
X14714310Y-12335667D01*
X14733357Y-12326143D01*
X14761929Y-12326143D01*
X14780976Y-12335667D01*
X14790500Y-12354714D01*
X14790500Y-12459476D01*
X14790500Y-12354714D02*
X14800024Y-12335667D01*
X14819072Y-12326143D01*
X14847643Y-12326143D01*
X14866691Y-12335667D01*
X14876214Y-12354714D01*
X14876214Y-12459476D01*
X14971452Y-12459476D02*
X14971452Y-12326143D01*
X14971452Y-12345190D02*
X14980976Y-12335667D01*
X15000024Y-12326143D01*
X15028595Y-12326143D01*
X15047643Y-12335667D01*
X15057167Y-12354714D01*
X15057167Y-12459476D01*
X15057167Y-12354714D02*
X15066691Y-12335667D01*
X15085738Y-12326143D01*
X15114310Y-12326143D01*
X15133357Y-12335667D01*
X15142881Y-12354714D01*
X15142881Y-12459476D01*
X15533357Y-12249952D02*
X15361929Y-12507095D01*
X15790500Y-12259476D02*
X15809548Y-12259476D01*
X15828595Y-12269000D01*
X15838119Y-12278524D01*
X15847643Y-12297571D01*
X15857167Y-12335667D01*
X15857167Y-12383286D01*
X15847643Y-12421381D01*
X15838119Y-12440428D01*
X15828595Y-12449952D01*
X15809548Y-12459476D01*
X15790500Y-12459476D01*
X15771452Y-12449952D01*
X15761929Y-12440428D01*
X15752405Y-12421381D01*
X15742881Y-12383286D01*
X15742881Y-12335667D01*
X15752405Y-12297571D01*
X15761929Y-12278524D01*
X15771452Y-12269000D01*
X15790500Y-12259476D01*
X15942881Y-12440428D02*
X15952405Y-12449952D01*
X15942881Y-12459476D01*
X15933357Y-12449952D01*
X15942881Y-12440428D01*
X15942881Y-12459476D01*
X16076214Y-12259476D02*
X16095262Y-12259476D01*
X16114310Y-12269000D01*
X16123833Y-12278524D01*
X16133357Y-12297571D01*
X16142881Y-12335667D01*
X16142881Y-12383286D01*
X16133357Y-12421381D01*
X16123833Y-12440428D01*
X16114310Y-12449952D01*
X16095262Y-12459476D01*
X16076214Y-12459476D01*
X16057167Y-12449952D01*
X16047643Y-12440428D01*
X16038119Y-12421381D01*
X16028595Y-12383286D01*
X16028595Y-12335667D01*
X16038119Y-12297571D01*
X16047643Y-12278524D01*
X16057167Y-12269000D01*
X16076214Y-12259476D01*
X16333357Y-12459476D02*
X16219072Y-12459476D01*
X16276214Y-12459476D02*
X16276214Y-12259476D01*
X16257167Y-12288048D01*
X16238119Y-12307095D01*
X16219072Y-12316619D01*
X16514310Y-12259476D02*
X16419072Y-12259476D01*
X16409548Y-12354714D01*
X16419072Y-12345190D01*
X16438119Y-12335667D01*
X16485738Y-12335667D01*
X16504786Y-12345190D01*
X16514310Y-12354714D01*
X16523833Y-12373762D01*
X16523833Y-12421381D01*
X16514310Y-12440428D01*
X16504786Y-12449952D01*
X16485738Y-12459476D01*
X16438119Y-12459476D01*
X16419072Y-12449952D01*
X16409548Y-12440428D01*
X16590500Y-12259476D02*
X16723833Y-12259476D01*
X16638119Y-12459476D01*
X16790500Y-12259476D02*
X16790500Y-12297571D01*
X16866691Y-12259476D02*
X16866691Y-12297571D01*
X17161929Y-12535667D02*
X17152405Y-12526143D01*
X17133357Y-12497571D01*
X17123834Y-12478524D01*
X17114310Y-12449952D01*
X17104786Y-12402333D01*
X17104786Y-12364238D01*
X17114310Y-12316619D01*
X17123834Y-12288048D01*
X17133357Y-12269000D01*
X17152405Y-12240428D01*
X17161929Y-12230905D01*
X17247643Y-12459476D02*
X17285738Y-12459476D01*
X17304786Y-12449952D01*
X17314310Y-12440428D01*
X17333357Y-12411857D01*
X17342881Y-12373762D01*
X17342881Y-12297571D01*
X17333357Y-12278524D01*
X17323834Y-12269000D01*
X17304786Y-12259476D01*
X17266691Y-12259476D01*
X17247643Y-12269000D01*
X17238119Y-12278524D01*
X17228595Y-12297571D01*
X17228595Y-12345190D01*
X17238119Y-12364238D01*
X17247643Y-12373762D01*
X17266691Y-12383286D01*
X17304786Y-12383286D01*
X17323834Y-12373762D01*
X17333357Y-12364238D01*
X17342881Y-12345190D01*
X17514310Y-12259476D02*
X17476214Y-12259476D01*
X17457167Y-12269000D01*
X17447643Y-12278524D01*
X17428595Y-12307095D01*
X17419072Y-12345190D01*
X17419072Y-12421381D01*
X17428595Y-12440428D01*
X17438119Y-12449952D01*
X17457167Y-12459476D01*
X17495262Y-12459476D01*
X17514310Y-12449952D01*
X17523834Y-12440428D01*
X17533357Y-12421381D01*
X17533357Y-12373762D01*
X17523834Y-12354714D01*
X17514310Y-12345190D01*
X17495262Y-12335667D01*
X17457167Y-12335667D01*
X17438119Y-12345190D01*
X17428595Y-12354714D01*
X17419072Y-12373762D01*
X17771453Y-12459476D02*
X17771453Y-12259476D01*
X17857167Y-12459476D02*
X17857167Y-12354714D01*
X17847643Y-12335667D01*
X17828595Y-12326143D01*
X17800024Y-12326143D01*
X17780976Y-12335667D01*
X17771453Y-12345190D01*
X17980976Y-12459476D02*
X17961929Y-12449952D01*
X17952405Y-12440428D01*
X17942881Y-12421381D01*
X17942881Y-12364238D01*
X17952405Y-12345190D01*
X17961929Y-12335667D01*
X17980976Y-12326143D01*
X18009548Y-12326143D01*
X18028595Y-12335667D01*
X18038119Y-12345190D01*
X18047643Y-12364238D01*
X18047643Y-12421381D01*
X18038119Y-12440428D01*
X18028595Y-12449952D01*
X18009548Y-12459476D01*
X17980976Y-12459476D01*
X18161929Y-12459476D02*
X18142881Y-12449952D01*
X18133357Y-12430905D01*
X18133357Y-12259476D01*
X18314310Y-12449952D02*
X18295262Y-12459476D01*
X18257167Y-12459476D01*
X18238119Y-12449952D01*
X18228595Y-12430905D01*
X18228595Y-12354714D01*
X18238119Y-12335667D01*
X18257167Y-12326143D01*
X18295262Y-12326143D01*
X18314310Y-12335667D01*
X18323834Y-12354714D01*
X18323834Y-12373762D01*
X18228595Y-12392809D01*
X18400024Y-12449952D02*
X18419072Y-12459476D01*
X18457167Y-12459476D01*
X18476214Y-12449952D01*
X18485738Y-12430905D01*
X18485738Y-12421381D01*
X18476214Y-12402333D01*
X18457167Y-12392809D01*
X18428595Y-12392809D01*
X18409548Y-12383286D01*
X18400024Y-12364238D01*
X18400024Y-12354714D01*
X18409548Y-12335667D01*
X18428595Y-12326143D01*
X18457167Y-12326143D01*
X18476214Y-12335667D01*
X18552405Y-12535667D02*
X18561929Y-12526143D01*
X18580976Y-12497571D01*
X18590500Y-12478524D01*
X18600024Y-12449952D01*
X18609548Y-12402333D01*
X18609548Y-12364238D01*
X18600024Y-12316619D01*
X18590500Y-12288048D01*
X18580976Y-12269000D01*
X18561929Y-12240428D01*
X18552405Y-12230905D01*
M02*
