M48
; DRILL file {KiCad (6.0.2)} date Thu Jul 21 21:07:06 2022
; FORMAT={-:-/ absolute / metric / decimal}
; #@! TF.CreationDate,2022-07-21T21:07:06-07:00
; #@! TF.GenerationSoftware,Kicad,Pcbnew,(6.0.2)
; #@! TF.FileFunction,Plated,1,4,PTH
FMAT,2
METRIC
; #@! TA.AperFunction,Plated,PTH,ComponentDrill
T1C0.250
; #@! TA.AperFunction,Plated,PTH,ViaDrill
T2C0.400
%
G90
G05
T1
X141.709Y-108.524
X141.709Y-110.076
X142.589Y-108.524
X142.589Y-110.076
X143.469Y-108.524
X143.469Y-110.076
X144.349Y-108.524
X144.349Y-110.076
X145.229Y-108.524
X145.229Y-110.076
X146.109Y-108.524
X146.109Y-110.076
X146.989Y-108.524
X146.989Y-110.076
X147.869Y-108.524
X147.869Y-110.076
X148.749Y-108.524
X148.749Y-110.076
X149.628Y-108.524
X149.628Y-110.076
X150.508Y-108.524
X150.508Y-110.076
X151.388Y-108.524
X151.388Y-110.076
X152.268Y-108.524
X152.268Y-110.076
X153.148Y-108.524
X153.148Y-110.076
X154.028Y-108.524
X154.028Y-110.076
X154.908Y-108.524
X154.908Y-110.076
X155.788Y-108.524
X155.788Y-110.076
X156.668Y-108.524
X156.668Y-110.076
X157.548Y-108.524
X157.548Y-110.076
X158.427Y-108.524
X158.427Y-110.076
X159.307Y-108.524
X159.307Y-110.076
X160.187Y-108.524
X160.187Y-110.076
X161.067Y-108.524
X161.067Y-110.076
X161.947Y-108.524
X161.947Y-110.076
X162.827Y-108.524
X162.827Y-110.076
X163.707Y-108.524
X163.707Y-110.076
X164.587Y-108.524
X164.587Y-110.076
X165.467Y-108.524
X165.467Y-110.076
X166.347Y-108.524
X166.347Y-110.076
X167.226Y-108.524
X167.226Y-110.076
X168.106Y-108.524
X168.106Y-110.076
X168.986Y-108.524
X168.986Y-110.076
X169.866Y-108.524
X169.866Y-110.076
X170.746Y-108.524
X170.746Y-110.076
T2
X137.432Y-68.7
X137.432Y-80.3
X137.432Y-91.9
X137.432Y-103.5
X139.064Y-68.7
X139.064Y-80.3
X139.064Y-91.9
X139.064Y-103.5
X140.696Y-68.7
X140.696Y-80.3
X140.696Y-91.9
X140.696Y-103.5
X142.328Y-68.7
X142.328Y-80.3
X142.328Y-91.9
X142.328Y-103.5
X143.96Y-68.7
X143.96Y-80.3
X143.96Y-91.9
X143.96Y-103.5
X145.592Y-68.7
X145.592Y-80.3
X145.592Y-91.9
X145.592Y-103.5
X147.224Y-68.7
X147.224Y-80.3
X147.224Y-91.9
X147.224Y-103.5
X148.856Y-68.7
X148.856Y-80.3
X148.856Y-91.9
X148.856Y-103.5
X150.488Y-68.7
X150.488Y-80.3
X150.488Y-91.9
X150.488Y-103.5
X152.12Y-68.7
X152.12Y-80.3
X152.12Y-91.9
X152.12Y-103.5
X153.752Y-68.7
X153.752Y-80.3
X153.752Y-91.9
X153.752Y-103.5
X155.384Y-68.7
X155.384Y-80.3
X155.384Y-91.9
X155.384Y-103.5
X157.016Y-68.7
X157.016Y-80.3
X157.016Y-91.9
X157.016Y-103.5
X158.648Y-68.7
X158.648Y-80.3
X158.648Y-91.9
X158.648Y-103.5
X160.28Y-68.7
X160.28Y-80.3
X160.28Y-91.9
X160.28Y-103.5
X161.912Y-68.7
X161.912Y-80.3
X161.912Y-91.9
X161.912Y-103.5
X163.544Y-68.7
X163.544Y-80.3
X163.544Y-91.9
X163.544Y-103.5
X165.176Y-68.7
X165.176Y-80.3
X165.176Y-91.9
X165.176Y-103.5
X166.808Y-68.7
X166.808Y-80.3
X166.808Y-91.9
X166.808Y-103.5
X168.44Y-68.7
X168.44Y-80.3
X168.44Y-91.9
X168.44Y-103.5
X170.072Y-68.7
X170.072Y-80.3
X170.072Y-91.9
X170.072Y-103.5
X171.704Y-68.7
X171.704Y-80.3
X171.704Y-91.9
X171.704Y-103.5
X173.336Y-68.7
X173.336Y-80.3
X173.336Y-91.9
X173.336Y-103.5
X174.968Y-68.7
X174.968Y-80.3
X174.968Y-91.9
X174.968Y-103.5
T0
M30
