%TF.GenerationSoftware,KiCad,Pcbnew,(6.0.2)*%
%TF.CreationDate,2022-07-21T21:07:04-07:00*%
%TF.ProjectId,testCoupon,74657374-436f-4757-906f-6e2e6b696361,1*%
%TF.SameCoordinates,Original*%
%TF.FileFunction,Copper,L1,Top*%
%TF.FilePolarity,Positive*%
%FSLAX46Y46*%
G04 Gerber Fmt 4.6, Leading zero omitted, Abs format (unit mm)*
G04 Created by KiCad (PCBNEW (6.0.2)) date 2022-07-21 21:07:04*
%MOMM*%
%LPD*%
G01*
G04 APERTURE LIST*
%TA.AperFunction,NonConductor*%
%ADD10C,0.200000*%
%TD*%
%TA.AperFunction,SMDPad,CuDef*%
%ADD11O,31.360000X0.297180*%
%TD*%
%TA.AperFunction,SMDPad,CuDef*%
%ADD12R,29.972000X1.014980*%
%TD*%
%TA.AperFunction,SMDPad,CuDef*%
%ADD13R,29.972000X1.015000*%
%TD*%
%TA.AperFunction,SMDPad,CuDef*%
%ADD14O,31.360000X0.296416*%
%TD*%
%TA.AperFunction,ComponentPad*%
%ADD15C,0.380000*%
%TD*%
%TA.AperFunction,SMDPad,CuDef*%
%ADD16R,29.972000X1.017164*%
%TD*%
%TA.AperFunction,SMDPad,CuDef*%
%ADD17R,29.972000X1.016164*%
%TD*%
%TA.AperFunction,SMDPad,CuDef*%
%ADD18R,4.000000X1.200000*%
%TD*%
%TA.AperFunction,SMDPad,CuDef*%
%ADD19R,4.000000X1.280000*%
%TD*%
%TA.AperFunction,ViaPad*%
%ADD20C,0.800000*%
%TD*%
%TA.AperFunction,Conductor*%
%ADD21C,0.293370*%
%TD*%
%TA.AperFunction,Conductor*%
%ADD22C,0.430733*%
%TD*%
%TA.AperFunction,Conductor*%
%ADD23C,0.360680*%
%TD*%
G04 APERTURE END LIST*
D10*
X140700000Y-109300000D02*
X140000000Y-109800000D01*
X140000000Y-109800000D02*
X140000000Y-108800000D01*
X140000000Y-108800000D02*
X140700000Y-109300000D01*
G36*
X140700000Y-109300000D02*
G01*
X140000000Y-109800000D01*
X140000000Y-108800000D01*
X140700000Y-109300000D01*
G37*
X140700000Y-109300000D02*
X140000000Y-109800000D01*
X140000000Y-108800000D01*
X140700000Y-109300000D01*
X140700000Y-86100000D02*
X140000000Y-86600000D01*
X140000000Y-86600000D02*
X140000000Y-85600000D01*
X140000000Y-85600000D02*
X140700000Y-86100000D01*
G36*
X140700000Y-86100000D02*
G01*
X140000000Y-86600000D01*
X140000000Y-85600000D01*
X140700000Y-86100000D01*
G37*
X140700000Y-86100000D02*
X140000000Y-86600000D01*
X140000000Y-85600000D01*
X140700000Y-86100000D01*
X140700000Y-74500000D02*
X140000000Y-75000000D01*
X140000000Y-75000000D02*
X140000000Y-74000000D01*
X140000000Y-74000000D02*
X140700000Y-74500000D01*
G36*
X140700000Y-74500000D02*
G01*
X140000000Y-75000000D01*
X140000000Y-74000000D01*
X140700000Y-74500000D01*
G37*
X140700000Y-74500000D02*
X140000000Y-75000000D01*
X140000000Y-74000000D01*
X140700000Y-74500000D01*
X140706757Y-97700000D02*
X140000000Y-98200000D01*
X140000000Y-98200000D02*
X140000000Y-97200000D01*
X140000000Y-97200000D02*
X140706757Y-97700000D01*
G36*
X140706757Y-97700000D02*
G01*
X140000000Y-98200000D01*
X140000000Y-97200000D01*
X140706757Y-97700000D01*
G37*
X140706757Y-97700000D02*
X140000000Y-98200000D01*
X140000000Y-97200000D01*
X140706757Y-97700000D01*
X171700000Y-86100000D02*
X172400000Y-85600000D01*
X172400000Y-85600000D02*
X172400000Y-86600000D01*
X172400000Y-86600000D02*
X171700000Y-86100000D01*
G36*
X172400000Y-86600000D02*
G01*
X171700000Y-86100000D01*
X172400000Y-85600000D01*
X172400000Y-86600000D01*
G37*
X172400000Y-86600000D02*
X171700000Y-86100000D01*
X172400000Y-85600000D01*
X172400000Y-86600000D01*
X140700000Y-62900000D02*
X140000000Y-63400000D01*
X140000000Y-63400000D02*
X140000000Y-62400000D01*
X140000000Y-62400000D02*
X140700000Y-62900000D01*
G36*
X140700000Y-62900000D02*
G01*
X140000000Y-63400000D01*
X140000000Y-62400000D01*
X140700000Y-62900000D01*
G37*
X140700000Y-62900000D02*
X140000000Y-63400000D01*
X140000000Y-62400000D01*
X140700000Y-62900000D01*
X171700000Y-109300000D02*
X172400000Y-108800000D01*
X172400000Y-108800000D02*
X172400000Y-109800000D01*
X172400000Y-109800000D02*
X171700000Y-109300000D01*
G36*
X172400000Y-109800000D02*
G01*
X171700000Y-109300000D01*
X172400000Y-108800000D01*
X172400000Y-109800000D01*
G37*
X172400000Y-109800000D02*
X171700000Y-109300000D01*
X172400000Y-108800000D01*
X172400000Y-109800000D01*
X171700000Y-74477027D02*
X172400000Y-74000000D01*
X172400000Y-74000000D02*
X172400000Y-75000000D01*
X172400000Y-75000000D02*
X171700000Y-74477027D01*
G36*
X172400000Y-75000000D02*
G01*
X171700000Y-74477027D01*
X172400000Y-74000000D01*
X172400000Y-75000000D01*
G37*
X172400000Y-75000000D02*
X171700000Y-74477027D01*
X172400000Y-74000000D01*
X172400000Y-75000000D01*
X171700000Y-62900000D02*
X172400000Y-62400000D01*
X172400000Y-62400000D02*
X172400000Y-63400000D01*
X172400000Y-63400000D02*
X171700000Y-62900000D01*
G36*
X172400000Y-63400000D02*
G01*
X171700000Y-62900000D01*
X172400000Y-62400000D01*
X172400000Y-63400000D01*
G37*
X172400000Y-63400000D02*
X171700000Y-62900000D01*
X172400000Y-62400000D01*
X172400000Y-63400000D01*
X171706757Y-97700000D02*
X172406757Y-97200000D01*
X172406757Y-97200000D02*
X172406757Y-98200000D01*
X172406757Y-98200000D02*
X171706757Y-97700000D01*
G36*
X172406757Y-98200000D02*
G01*
X171706757Y-97700000D01*
X172406757Y-97200000D01*
X172406757Y-98200000D01*
G37*
X172406757Y-98200000D02*
X171706757Y-97700000D01*
X172406757Y-97200000D01*
X172406757Y-98200000D01*
D11*
%TO.P,NT4,1,1*%
%TO.N,Net-(J7-Pad1)*%
X156206757Y-97700000D03*
D12*
%TO.P,NT4,2*%
%TO.N,GND*%
X156206757Y-96953490D03*
D13*
X156206757Y-98447500D03*
%TD*%
D14*
%TO.P,NT5,1,1*%
%TO.N,Net-(J9-Pad1)*%
X156219992Y-109300010D03*
D15*
%TO.P,NT5,2,2*%
%TO.N,GND*%
X166346592Y-110076010D03*
X169866192Y-108524010D03*
X156667692Y-110076010D03*
X154907892Y-110076010D03*
X155787792Y-110076010D03*
X161067192Y-110076010D03*
X168986292Y-108524010D03*
X149628492Y-108524010D03*
X159307392Y-108524010D03*
X150508392Y-108524010D03*
X161947092Y-108524010D03*
X154027992Y-110076010D03*
X153148092Y-110076010D03*
X170746092Y-110076010D03*
X147868692Y-108524010D03*
X142589292Y-110076010D03*
X146988792Y-108524010D03*
X168986292Y-110076010D03*
X157547592Y-110076010D03*
X150508392Y-110076010D03*
X161067192Y-108524010D03*
X155787792Y-108524010D03*
X164586792Y-110076010D03*
X151388292Y-108524010D03*
X159307392Y-110076010D03*
X161947092Y-110076010D03*
X148748592Y-110076010D03*
X160187292Y-108524010D03*
X167226492Y-110076010D03*
X170746092Y-108524010D03*
D16*
X156219992Y-110041428D03*
D15*
X156667692Y-108524010D03*
X152268192Y-108524010D03*
X144349092Y-110076010D03*
X148748592Y-108524010D03*
X169866192Y-110076010D03*
X145228992Y-110076010D03*
X168106392Y-110076010D03*
X141709392Y-110076010D03*
X165466692Y-110076010D03*
X146988792Y-110076010D03*
X167226492Y-108524010D03*
X152268192Y-110076010D03*
X157547592Y-108524010D03*
X143469192Y-110076010D03*
X146108892Y-110076010D03*
X141709392Y-108524010D03*
X154027992Y-108524010D03*
X144349092Y-108524010D03*
X168106392Y-108524010D03*
X158427492Y-108524010D03*
X147868692Y-110076010D03*
X158427492Y-110076010D03*
X164586792Y-108524010D03*
X160187292Y-110076010D03*
D17*
X156219492Y-108559092D03*
D15*
X153148092Y-108524010D03*
X165466692Y-108524010D03*
X166346592Y-108524010D03*
X163706892Y-108524010D03*
X162826992Y-110076010D03*
X154907892Y-108524010D03*
X143469192Y-108524010D03*
X163706892Y-110076010D03*
X149628492Y-110076010D03*
X145228992Y-108524010D03*
X151388292Y-110076010D03*
X146108892Y-108524010D03*
X142589292Y-108524010D03*
X162826992Y-108524010D03*
%TD*%
D18*
%TO.P,J6,1,In*%
%TO.N,Net-(J5-Pad1)*%
X174400000Y-86100000D03*
D19*
%TO.P,J6,2,Ext*%
%TO.N,GND*%
X174400000Y-83110000D03*
X174400000Y-89080000D03*
%TD*%
D18*
%TO.P,J3,1,In*%
%TO.N,Net-(J3-Pad1)*%
X138000000Y-74500000D03*
D19*
%TO.P,J3,2,Ext*%
%TO.N,GND*%
X138000000Y-77490000D03*
X138000000Y-71520000D03*
%TD*%
D18*
%TO.P,J4,1,In*%
%TO.N,Net-(J3-Pad1)*%
X174404250Y-74500000D03*
D19*
%TO.P,J4,2,Ext*%
%TO.N,GND*%
X174404250Y-71510000D03*
X174404250Y-77480000D03*
%TD*%
D18*
%TO.P,J7,1,In*%
%TO.N,Net-(J7-Pad1)*%
X138006757Y-97700000D03*
D19*
%TO.P,J7,2,Ext*%
%TO.N,GND*%
X138006757Y-100690000D03*
X138006757Y-94720000D03*
%TD*%
D18*
%TO.P,J1,1,In*%
%TO.N,Net-(J1-Pad1)*%
X138000000Y-62900000D03*
D19*
%TO.P,J1,2,Ext*%
%TO.N,GND*%
X138000000Y-65890000D03*
X138000000Y-59920000D03*
%TD*%
D18*
%TO.P,J8,1,In*%
%TO.N,Net-(J8-Pad1)*%
X174406757Y-97700000D03*
D19*
%TO.P,J8,2,Ext*%
%TO.N,GND*%
X174406757Y-94710000D03*
X174406757Y-100680000D03*
%TD*%
D18*
%TO.P,J2,1,In*%
%TO.N,Net-(J1-Pad1)*%
X174400000Y-62900000D03*
D19*
%TO.P,J2,2,Ext*%
%TO.N,GND*%
X174400000Y-59910000D03*
X174400000Y-65880000D03*
%TD*%
D18*
%TO.P,J5,1,In*%
%TO.N,Net-(J5-Pad1)*%
X138000000Y-86100000D03*
D19*
%TO.P,J5,2,Ext*%
%TO.N,GND*%
X138000000Y-89090000D03*
X138000000Y-83120000D03*
%TD*%
D18*
%TO.P,J10,1,In*%
%TO.N,Net-(J10-Pad1)*%
X174400000Y-109300000D03*
D19*
%TO.P,J10,2,Ext*%
%TO.N,GND*%
X174400000Y-106310000D03*
X174400000Y-112280000D03*
%TD*%
D18*
%TO.P,J9,1,In*%
%TO.N,Net-(J9-Pad1)*%
X138000000Y-109300000D03*
D19*
%TO.P,J9,2,Ext*%
%TO.N,GND*%
X138000000Y-112290000D03*
X138000000Y-106320000D03*
%TD*%
D20*
%TO.N,GND*%
X153752000Y-80300000D03*
X150488000Y-91900000D03*
X174968000Y-103500000D03*
X160280000Y-68700000D03*
X170072000Y-80300000D03*
X148856000Y-91900000D03*
X170072000Y-91900000D03*
X142328000Y-103500000D03*
X145592000Y-103500000D03*
X163544000Y-103500000D03*
X147224000Y-80300000D03*
X163544000Y-91900000D03*
X170072000Y-103500000D03*
X168440000Y-80300000D03*
X157016000Y-91900000D03*
X150488000Y-80300000D03*
X166808000Y-80300000D03*
X155384000Y-80300000D03*
X152120000Y-80300000D03*
X157016000Y-103500000D03*
X163544000Y-80300000D03*
X163544000Y-68700000D03*
X160280000Y-103500000D03*
X171704000Y-68700000D03*
X148856000Y-80300000D03*
X137432000Y-91900000D03*
X147224000Y-91900000D03*
X165176000Y-91900000D03*
X153752000Y-103500000D03*
X143960000Y-80300000D03*
X137432000Y-103500000D03*
X158648000Y-68700000D03*
X165176000Y-80300000D03*
X147224000Y-68700000D03*
X173336000Y-80300000D03*
X171704000Y-91900000D03*
X168440000Y-91900000D03*
X161912000Y-103500000D03*
X148856000Y-68700000D03*
X139064000Y-80300000D03*
X143960000Y-91900000D03*
X137432000Y-80300000D03*
X157016000Y-80300000D03*
X168440000Y-68700000D03*
X153752000Y-91900000D03*
X142328000Y-91900000D03*
X153752000Y-68700000D03*
X157016000Y-68700000D03*
X171704000Y-103500000D03*
X161912000Y-91900000D03*
X166808000Y-103500000D03*
X166808000Y-91900000D03*
X155384000Y-91900000D03*
X171704000Y-80300000D03*
X140696000Y-80300000D03*
X139064000Y-68700000D03*
X165176000Y-68700000D03*
X168440000Y-103500000D03*
X143960000Y-103500000D03*
X170072000Y-68700000D03*
X174968000Y-91900000D03*
X161912000Y-80300000D03*
X160280000Y-80300000D03*
X161912000Y-68700000D03*
X140696000Y-68700000D03*
X137432000Y-68700000D03*
X174968000Y-68700000D03*
X174968000Y-80300000D03*
X173336000Y-68700000D03*
X139064000Y-91900000D03*
X150488000Y-103500000D03*
X145592000Y-91900000D03*
X142328000Y-80300000D03*
X152120000Y-68700000D03*
X152120000Y-91900000D03*
X155384000Y-103500000D03*
X150488000Y-68700000D03*
X140696000Y-91900000D03*
X166808000Y-68700000D03*
X145592000Y-80300000D03*
X173336000Y-91900000D03*
X145592000Y-68700000D03*
X139064000Y-103500000D03*
X142328000Y-68700000D03*
X152120000Y-103500000D03*
X147224000Y-103500000D03*
X143960000Y-68700000D03*
X155384000Y-68700000D03*
X165176000Y-103500000D03*
X148856000Y-103500000D03*
X158648000Y-80300000D03*
X158648000Y-91900000D03*
X158648000Y-103500000D03*
X160280000Y-91900000D03*
X173336000Y-103500000D03*
X140696000Y-103500000D03*
%TD*%
D21*
%TO.N,Net-(J1-Pad1)*%
X138000000Y-62900000D02*
X174400000Y-62900000D01*
D22*
%TO.N,Net-(J3-Pad1)*%
X138000000Y-74500000D02*
X174404250Y-74500000D01*
D23*
%TO.N,Net-(J5-Pad1)*%
X138000000Y-86100000D02*
X174400000Y-86100000D01*
%TD*%
%TA.AperFunction,Conductor*%
%TO.N,GND*%
G36*
X176420933Y-57628827D02*
G01*
X176424360Y-57637100D01*
X176424360Y-60688300D01*
X176420933Y-60696573D01*
X176412660Y-60700000D01*
X135987340Y-60700000D01*
X135979067Y-60696573D01*
X135975640Y-60688300D01*
X135975640Y-57637100D01*
X135979067Y-57628827D01*
X135987340Y-57625400D01*
X176412660Y-57625400D01*
X176420933Y-57628827D01*
G37*
%TD.AperFunction*%
%TD*%
%TA.AperFunction,Conductor*%
%TO.N,GND*%
G36*
X171675117Y-109650897D02*
G01*
X172220823Y-110040688D01*
X172221105Y-110040896D01*
X172262869Y-110072654D01*
X172282579Y-110078362D01*
X172293395Y-110081494D01*
X172295083Y-110082127D01*
X172302817Y-110085731D01*
X172304771Y-110086885D01*
X172322744Y-110100000D01*
X172355644Y-110100000D01*
X172358897Y-110100462D01*
X172370218Y-110103740D01*
X172371293Y-110103647D01*
X172371295Y-110103647D01*
X172388768Y-110102133D01*
X172401887Y-110100997D01*
X172403685Y-110100980D01*
X172415518Y-110101784D01*
X172434331Y-110103063D01*
X172434332Y-110103063D01*
X172435409Y-110103136D01*
X172442226Y-110101024D01*
X172445689Y-110100500D01*
X176412660Y-110100500D01*
X176420933Y-110103927D01*
X176424360Y-110112200D01*
X176424360Y-114562900D01*
X176420933Y-114571173D01*
X176412660Y-114574600D01*
X156312124Y-114574600D01*
X156303851Y-114571173D01*
X156300424Y-114562900D01*
X156300424Y-109660418D01*
X156303851Y-109652145D01*
X156312124Y-109648718D01*
X171668317Y-109648718D01*
X171675117Y-109650897D01*
G37*
%TD.AperFunction*%
%TD*%
%TA.AperFunction,Conductor*%
%TO.N,GND*%
G36*
X156606757Y-97339210D02*
G01*
X156603330Y-97347483D01*
X156595057Y-97350910D01*
X140756077Y-97350910D01*
X140749449Y-97348851D01*
X140144687Y-96933077D01*
X140144288Y-96932789D01*
X140140183Y-96929667D01*
X140137993Y-96928001D01*
X140137991Y-96928000D01*
X140137131Y-96927346D01*
X140136105Y-96927049D01*
X140134767Y-96926257D01*
X140108220Y-96908006D01*
X140106757Y-96907000D01*
X140083615Y-96907000D01*
X140078721Y-96905927D01*
X140075732Y-96904550D01*
X140075730Y-96904550D01*
X140074752Y-96904099D01*
X140053113Y-96902727D01*
X140050599Y-96902288D01*
X140047271Y-96901325D01*
X140029782Y-96896260D01*
X140028707Y-96896353D01*
X140028705Y-96896353D01*
X140011093Y-96897879D01*
X139997406Y-96899064D01*
X139995661Y-96899085D01*
X139986903Y-96898530D01*
X139964296Y-96897096D01*
X139964294Y-96897096D01*
X139963217Y-96897028D01*
X139962185Y-96897353D01*
X139962184Y-96897353D01*
X139957079Y-96898960D01*
X139953566Y-96899500D01*
X135987340Y-96899500D01*
X135979067Y-96896073D01*
X135975640Y-96887800D01*
X135975640Y-92307000D01*
X156606757Y-92307000D01*
X156606757Y-97339210D01*
G37*
%TD.AperFunction*%
%TD*%
%TA.AperFunction,Conductor*%
%TO.N,GND*%
G36*
X176420933Y-102003427D02*
G01*
X176424360Y-102011700D01*
X176424360Y-104500000D01*
X135975640Y-104500000D01*
X135975640Y-102011700D01*
X135979067Y-102003427D01*
X135987340Y-102000000D01*
X176412660Y-102000000D01*
X176420933Y-102003427D01*
G37*
%TD.AperFunction*%
%TD*%
%TA.AperFunction,Conductor*%
%TO.N,GND*%
G36*
X156300000Y-108950000D02*
G01*
X144863326Y-108951302D01*
X140731711Y-108951302D01*
X140724911Y-108949123D01*
X140179198Y-108559328D01*
X140178916Y-108559120D01*
X140137992Y-108528001D01*
X140137131Y-108527346D01*
X140123904Y-108523516D01*
X140106600Y-108518505D01*
X140104912Y-108517872D01*
X140096595Y-108513996D01*
X140094667Y-108512862D01*
X140076936Y-108500000D01*
X140044356Y-108500000D01*
X140041103Y-108499538D01*
X140029782Y-108496260D01*
X140028707Y-108496353D01*
X140028705Y-108496353D01*
X140011232Y-108497867D01*
X139998113Y-108499003D01*
X139996315Y-108499020D01*
X139984462Y-108498214D01*
X139965670Y-108496937D01*
X139965669Y-108496937D01*
X139964592Y-108496864D01*
X139959678Y-108498386D01*
X139957774Y-108498976D01*
X139954312Y-108499500D01*
X135987340Y-108499500D01*
X135979067Y-108496073D01*
X135975640Y-108487800D01*
X135975640Y-104500000D01*
X156300000Y-104500000D01*
X156300000Y-108950000D01*
G37*
%TD.AperFunction*%
%TD*%
%TA.AperFunction,Conductor*%
%TO.N,GND*%
G36*
X156599684Y-98050095D02*
G01*
X156604161Y-98050986D01*
X156607256Y-98052268D01*
X156606757Y-101991968D01*
X135987340Y-101991968D01*
X135979067Y-101988541D01*
X135975640Y-101980268D01*
X135975640Y-98512200D01*
X135979067Y-98503927D01*
X135987340Y-98500500D01*
X139957370Y-98500500D01*
X139960625Y-98500962D01*
X139970218Y-98503740D01*
X139971294Y-98503647D01*
X139971295Y-98503647D01*
X139991811Y-98501870D01*
X139994362Y-98501928D01*
X140014783Y-98504643D01*
X140014785Y-98504643D01*
X140015854Y-98504785D01*
X140033758Y-98500478D01*
X140036497Y-98500153D01*
X140064593Y-98500172D01*
X140081176Y-98500183D01*
X140081177Y-98500183D01*
X140083025Y-98500184D01*
X140084522Y-98499101D01*
X140084525Y-98499100D01*
X140105087Y-98484222D01*
X140109208Y-98482326D01*
X140123711Y-98478836D01*
X140124513Y-98478643D01*
X140129989Y-98475522D01*
X140152538Y-98459570D01*
X140154153Y-98458613D01*
X140180996Y-98445491D01*
X140180995Y-98445491D01*
X140181966Y-98445017D01*
X140198054Y-98427675D01*
X140199871Y-98426084D01*
X140729720Y-98051239D01*
X140736476Y-98049090D01*
X148735809Y-98049090D01*
X156599684Y-98050095D01*
G37*
%TD.AperFunction*%
%TD*%
%TA.AperFunction,Conductor*%
%TO.N,GND*%
G36*
X156296996Y-109652145D02*
G01*
X156300423Y-109660418D01*
X156300387Y-110075076D01*
X156300003Y-114562901D01*
X156296575Y-114571174D01*
X156288303Y-114574600D01*
X135987340Y-114574600D01*
X135979067Y-114571173D01*
X135975640Y-114562900D01*
X135975640Y-110112200D01*
X135979067Y-110103927D01*
X135987340Y-110100500D01*
X139957370Y-110100500D01*
X139960624Y-110100962D01*
X139964886Y-110102196D01*
X139970218Y-110103740D01*
X139971294Y-110103647D01*
X139971295Y-110103647D01*
X139992524Y-110101809D01*
X139995022Y-110101860D01*
X140016168Y-110104573D01*
X140016169Y-110104573D01*
X140017237Y-110104710D01*
X140035641Y-110100194D01*
X140038427Y-110099857D01*
X140075920Y-110099856D01*
X140078399Y-110098059D01*
X140087828Y-110091226D01*
X140089555Y-110090189D01*
X140101679Y-110084263D01*
X140104024Y-110083413D01*
X140124972Y-110078273D01*
X140124976Y-110078271D01*
X140125776Y-110078075D01*
X140129374Y-110076003D01*
X140130985Y-110075076D01*
X140130990Y-110075073D01*
X140131238Y-110074930D01*
X140153145Y-110059282D01*
X140154808Y-110058292D01*
X140180996Y-110045491D01*
X140180995Y-110045491D01*
X140181966Y-110045017D01*
X140182699Y-110044227D01*
X140182703Y-110044224D01*
X140198537Y-110027156D01*
X140200313Y-110025592D01*
X140724883Y-109650897D01*
X140731684Y-109648718D01*
X156288723Y-109648718D01*
X156296996Y-109652145D01*
G37*
%TD.AperFunction*%
%TD*%
%TA.AperFunction,Conductor*%
%TO.N,GND*%
G36*
X176420933Y-88303427D02*
G01*
X176424360Y-88311700D01*
X176424360Y-92400000D01*
X135987340Y-92400000D01*
X135979067Y-92396573D01*
X135975640Y-92388300D01*
X135975640Y-88311700D01*
X135979067Y-88303427D01*
X135987340Y-88300000D01*
X176412660Y-88300000D01*
X176420933Y-88303427D01*
G37*
%TD.AperFunction*%
%TD*%
%TA.AperFunction,Conductor*%
%TO.N,GND*%
G36*
X176424360Y-96887800D02*
G01*
X176420933Y-96896073D01*
X176412660Y-96899500D01*
X172449387Y-96899500D01*
X172446133Y-96899038D01*
X172437578Y-96896561D01*
X172437579Y-96896561D01*
X172436539Y-96896260D01*
X172435463Y-96896353D01*
X172435462Y-96896353D01*
X172414234Y-96898191D01*
X172411736Y-96898140D01*
X172390590Y-96895427D01*
X172390589Y-96895427D01*
X172389521Y-96895290D01*
X172371535Y-96899703D01*
X172368736Y-96900040D01*
X172330872Y-96899984D01*
X172329373Y-96901069D01*
X172329372Y-96901069D01*
X172318287Y-96909089D01*
X172316567Y-96910121D01*
X172305085Y-96915734D01*
X172302735Y-96916586D01*
X172287299Y-96920374D01*
X172280982Y-96921924D01*
X172280268Y-96922335D01*
X172280266Y-96922336D01*
X172278226Y-96923511D01*
X172275519Y-96925070D01*
X172275288Y-96925235D01*
X172253612Y-96940718D01*
X172251949Y-96941708D01*
X172224791Y-96954983D01*
X172208220Y-96972847D01*
X172206443Y-96974410D01*
X172058265Y-97080252D01*
X171682394Y-97348731D01*
X171675594Y-97350910D01*
X156618596Y-97350910D01*
X156610323Y-97347483D01*
X156606896Y-97339210D01*
X156606896Y-92307000D01*
X176424360Y-92307000D01*
X176424360Y-96887800D01*
G37*
%TD.AperFunction*%
%TD*%
%TA.AperFunction,Conductor*%
%TO.N,GND*%
G36*
X176420933Y-76703427D02*
G01*
X176424360Y-76711700D01*
X176424360Y-83888300D01*
X176420933Y-83896573D01*
X176412660Y-83900000D01*
X135987340Y-83900000D01*
X135979067Y-83896573D01*
X135975640Y-83888300D01*
X135975640Y-76711700D01*
X135979067Y-76703427D01*
X135987340Y-76700000D01*
X176412660Y-76700000D01*
X176420933Y-76703427D01*
G37*
%TD.AperFunction*%
%TD*%
%TA.AperFunction,Conductor*%
%TO.N,GND*%
G36*
X176420933Y-65103427D02*
G01*
X176424360Y-65111700D01*
X176424360Y-72288300D01*
X176420933Y-72296573D01*
X176412660Y-72300000D01*
X135987340Y-72300000D01*
X135979067Y-72296573D01*
X135975640Y-72288300D01*
X135975640Y-65111700D01*
X135979067Y-65103427D01*
X135987340Y-65100000D01*
X176412660Y-65100000D01*
X176420933Y-65103427D01*
G37*
%TD.AperFunction*%
%TD*%
%TA.AperFunction,Conductor*%
%TO.N,GND*%
G36*
X176424360Y-108487800D02*
G01*
X176420933Y-108496073D01*
X176412660Y-108499500D01*
X172442630Y-108499500D01*
X172439376Y-108499038D01*
X172430821Y-108496561D01*
X172430822Y-108496561D01*
X172429782Y-108496260D01*
X172428706Y-108496353D01*
X172428705Y-108496353D01*
X172407477Y-108498191D01*
X172404979Y-108498140D01*
X172383833Y-108495427D01*
X172383832Y-108495427D01*
X172382764Y-108495290D01*
X172381717Y-108495547D01*
X172364942Y-108499663D01*
X172362154Y-108500000D01*
X172323760Y-108500000D01*
X172322266Y-108501078D01*
X172322265Y-108501078D01*
X172310369Y-108509660D01*
X172308663Y-108510682D01*
X172304966Y-108512489D01*
X172298326Y-108515735D01*
X172295978Y-108516586D01*
X172280542Y-108520374D01*
X172274225Y-108521924D01*
X172273511Y-108522335D01*
X172273509Y-108522336D01*
X172271469Y-108523511D01*
X172268762Y-108525070D01*
X172268531Y-108525235D01*
X172246855Y-108540718D01*
X172245192Y-108541708D01*
X172218034Y-108554983D01*
X172201463Y-108572847D01*
X172199686Y-108574410D01*
X171676910Y-108947821D01*
X171670111Y-108950000D01*
X156300000Y-108950000D01*
X156300000Y-104500000D01*
X176424360Y-104500000D01*
X176424360Y-108487800D01*
G37*
%TD.AperFunction*%
%TD*%
%TA.AperFunction,Conductor*%
%TO.N,GND*%
G36*
X171688192Y-98055410D02*
G01*
X172227609Y-98440708D01*
X172227862Y-98440896D01*
X172269626Y-98472654D01*
X172300156Y-98481495D01*
X172301843Y-98482128D01*
X172308899Y-98485416D01*
X172310770Y-98486509D01*
X172329856Y-98500184D01*
X172331691Y-98500184D01*
X172363010Y-98500177D01*
X172366265Y-98500639D01*
X172376975Y-98503740D01*
X172378050Y-98503647D01*
X172378052Y-98503647D01*
X172395525Y-98502133D01*
X172408644Y-98500997D01*
X172410442Y-98500980D01*
X172422275Y-98501784D01*
X172441088Y-98503063D01*
X172441089Y-98503063D01*
X172442166Y-98503136D01*
X172448983Y-98501024D01*
X172452446Y-98500500D01*
X176412660Y-98500500D01*
X176420933Y-98503927D01*
X176424360Y-98512200D01*
X176424360Y-101986452D01*
X176420933Y-101994725D01*
X176412660Y-101998152D01*
X156616172Y-101998152D01*
X156607899Y-101994725D01*
X156606757Y-101993015D01*
X156606757Y-98053232D01*
X171681394Y-98053232D01*
X171688192Y-98055410D01*
G37*
%TD.AperFunction*%
%TD*%
M02*
